<svg width="1197" height="1117" viewBox="0 0 1197 1117" fill="none" xmlns="http://www.w3.org/2000/svg">
<rect width="1197" height="1117" fill="#181D28"/>
<path fill-rule="evenodd" clip-rule="evenodd" d="M182.154 155.775L147.638 226.413L136.024 280.612L182.154 155.775Z" fill="#FFC341"/>
<path fill-rule="evenodd" clip-rule="evenodd" d="M182.154 155.775L136.024 280.612L164.742 257.258L182.154 155.775Z" fill="#FFE141"/>
<path fill-rule="evenodd" clip-rule="evenodd" d="M360.269 153.459L297.849 133.299L274.656 110.541" fill="#67A2D9"/>
<path fill-rule="evenodd" clip-rule="evenodd" d="M310.848 113.362L274.656 110.541L360.269 153.459L310.848 113.362Z" fill="#508ABF"/>
<path fill-rule="evenodd" clip-rule="evenodd" d="M412.822 116.735L408.527 130.665L389.936 134.272" fill="#14253D"/>
<path fill-rule="evenodd" clip-rule="evenodd" d="M400.969 113.989L389.936 134.274L412.822 116.736L400.969 113.989Z" fill="#224679"/>
<path fill-rule="evenodd" clip-rule="evenodd" d="M434.769 90.5943L414.362 105.055L385.298 90.527" fill="#F1C162"/>
<path fill-rule="evenodd" clip-rule="evenodd" d="M421.513 74.4653L385.298 90.5271L434.769 90.5944L421.513 74.4653Z" fill="#FFE141"/>
<path fill-rule="evenodd" clip-rule="evenodd" d="M172.92 132L64.68 142.56L0 79.2V0L172.92 132Z" fill="#67A2D9"/>
<path fill-rule="evenodd" clip-rule="evenodd" d="M0 124.325L30.36 331.684L0 385.439V124.325Z" fill="#14253D"/>
<path fill-rule="evenodd" clip-rule="evenodd" d="M30.36 331.684L0 124.325L64.68 142.559L30.36 331.684Z" fill="#224679"/>
<path fill-rule="evenodd" clip-rule="evenodd" d="M64.6794 142.56L63.3594 304.92L30.3594 331.684L64.6794 142.56Z" fill="#FFE141"/>
<path fill-rule="evenodd" clip-rule="evenodd" d="M121.441 256.08L63.3606 304.92L64.6806 142.56L121.441 256.08Z" fill="#F1C162"/>
<path fill-rule="evenodd" clip-rule="evenodd" d="M172.92 132L64.68 142.56L0 79.2V124.326L157.706 169.063L172.92 132Z" fill="#508ABF"/>
<path fill-rule="evenodd" clip-rule="evenodd" d="M172.92 132L0 0H96.36L172.92 132Z" fill="#14253D"/>
<path fill-rule="evenodd" clip-rule="evenodd" d="M172.92 132L96.3601 0H237.66L172.92 132Z" fill="#224679"/>
<path fill-rule="evenodd" clip-rule="evenodd" d="M64.6797 142.56L121.44 256.08L157.705 169.063L64.6797 142.56Z" fill="#FFE141"/>
<path fill-rule="evenodd" clip-rule="evenodd" d="M230.484 124.132L172.92 132L237.66 0L230.484 124.132Z" fill="#F1C162"/>
<path fill-rule="evenodd" clip-rule="evenodd" d="M257.225 89.76L230.484 124.131L237.66 0L257.225 89.76Z" fill="#FFE141"/>
<path fill-rule="evenodd" clip-rule="evenodd" d="M257.225 89.76L237.66 0H341.478L257.225 89.76Z" fill="#508ABF"/>
<path fill-rule="evenodd" clip-rule="evenodd" d="M257.225 89.76L341.478 0L323.843 105.6L257.225 89.76Z" fill="#67A2D9"/>
<path fill-rule="evenodd" clip-rule="evenodd" d="M341.478 0L323.843 105.6L414.708 62.04L341.478 0Z" fill="#14253D"/>
<path fill-rule="evenodd" clip-rule="evenodd" d="M464.733 0L414.707 62.04L341.477 0H464.733Z" fill="#224679"/>
<path fill-rule="evenodd" clip-rule="evenodd" d="M580.8 62.04L521.4 0H464.734L580.8 62.04Z" fill="#224679"/>
<path fill-rule="evenodd" clip-rule="evenodd" d="M515.519 152.025L581.667 145.929L542.316 81.4481L515.519 152.025Z" fill="#14253D"/>
<path fill-rule="evenodd" clip-rule="evenodd" d="M542.315 81.4481L515.518 152.025L461.134 104.78L542.315 81.4481Z" fill="#224679"/>
<path fill-rule="evenodd" clip-rule="evenodd" d="M660 0L580.8 62.04L521.4 0H660Z" fill="#67A2D9"/>
<path fill-rule="evenodd" clip-rule="evenodd" d="M602.325 1086.35C602.325 1087.16 602.452 1087.85 602.702 1088.41C602.953 1088.99 603.299 1089.41 603.738 1089.7C604.175 1089.99 604.654 1090.14 605.172 1090.14C605.696 1090.14 606.175 1090 606.61 1089.72C607.044 1089.45 607.391 1089.03 607.65 1088.46C607.909 1087.9 608.039 1087.19 608.039 1086.35C608.039 1085.55 607.909 1084.87 607.65 1084.29C607.391 1083.72 607.042 1083.28 606.599 1082.98C606.157 1082.68 605.674 1082.53 605.148 1082.53C604.601 1082.53 604.112 1082.68 603.683 1082.99C603.251 1083.3 602.918 1083.75 602.682 1084.33C602.443 1084.91 602.325 1085.58 602.325 1086.35ZM608.203 1090.74V1090.44C607.801 1090.9 607.406 1091.27 607.014 1091.56C606.625 1091.85 606.203 1092.07 605.745 1092.22C605.288 1092.37 604.792 1092.44 604.252 1092.44C603.536 1092.44 602.874 1092.29 602.265 1091.99C601.655 1091.69 601.129 1091.25 600.683 1090.69C600.237 1090.13 599.901 1089.47 599.671 1088.71C599.441 1087.95 599.326 1087.13 599.326 1086.25C599.326 1084.38 599.783 1082.93 600.694 1081.88C601.607 1080.84 602.806 1080.32 604.296 1080.32C605.156 1080.32 605.883 1080.46 606.473 1080.76C607.064 1081.06 607.641 1081.51 608.203 1082.12V1077.71C608.203 1077.1 608.324 1076.64 608.57 1076.32C608.813 1076.01 609.162 1075.85 609.614 1075.85C610.067 1075.85 610.414 1075.99 610.659 1076.29C610.903 1076.57 611.026 1076.99 611.026 1077.56V1090.74C611.026 1091.3 610.896 1091.73 610.633 1092.02C610.37 1092.3 610.031 1092.44 609.614 1092.44C609.206 1092.44 608.87 1092.29 608.601 1092C608.335 1091.7 608.203 1091.28 608.203 1090.74Z" fill="#5A5861"/>
<path fill-rule="evenodd" clip-rule="evenodd" d="M615.534 1085.41H620.951C620.879 1084.39 620.602 1083.62 620.124 1083.11C619.647 1082.61 619.018 1082.35 618.238 1082.35C617.492 1082.35 616.88 1082.61 616.403 1083.12C615.925 1083.63 615.635 1084.4 615.534 1085.41ZM621.377 1087.1H615.534C615.541 1087.78 615.676 1088.38 615.944 1088.9C616.21 1089.41 616.565 1089.81 617.005 1090.07C617.448 1090.33 617.933 1090.46 618.467 1090.46C618.824 1090.46 619.149 1090.42 619.445 1090.34C619.742 1090.25 620.027 1090.12 620.306 1089.94C620.583 1089.76 620.837 1089.57 621.07 1089.37C621.305 1089.16 621.606 1088.88 621.979 1088.53C622.134 1088.4 622.352 1088.34 622.637 1088.34C622.944 1088.34 623.192 1088.42 623.381 1088.59C623.57 1088.76 623.666 1088.99 623.666 1089.3C623.666 1089.57 623.559 1089.88 623.348 1090.25C623.135 1090.61 622.815 1090.96 622.391 1091.29C621.963 1091.62 621.428 1091.89 620.78 1092.11C620.135 1092.33 619.393 1092.44 618.554 1092.44C616.634 1092.44 615.143 1091.89 614.078 1090.8C613.012 1089.7 612.479 1088.22 612.479 1086.35C612.479 1085.47 612.61 1084.64 612.874 1083.89C613.137 1083.13 613.519 1082.49 614.021 1081.95C614.526 1081.41 615.147 1080.99 615.883 1080.7C616.62 1080.42 617.439 1080.27 618.335 1080.27C619.502 1080.27 620.504 1080.52 621.338 1081.01C622.174 1081.5 622.802 1082.14 623.216 1082.92C623.631 1083.7 623.84 1084.5 623.84 1085.31C623.84 1086.06 623.625 1086.54 623.195 1086.77C622.766 1086.99 622.158 1087.1 621.377 1087.1Z" fill="#5A5861"/>
<path fill-rule="evenodd" clip-rule="evenodd" d="M634.992 1088.54C634.992 1089.36 634.792 1090.07 634.392 1090.65C633.989 1091.24 633.396 1091.69 632.612 1091.99C631.827 1092.29 630.874 1092.44 629.75 1092.44C628.677 1092.44 627.759 1092.28 626.991 1091.95C626.225 1091.62 625.661 1091.21 625.296 1090.72C624.932 1090.23 624.75 1089.73 624.75 1089.24C624.75 1088.91 624.864 1088.63 625.099 1088.39C625.333 1088.16 625.628 1088.04 625.986 1088.04C626.299 1088.04 626.539 1088.12 626.708 1088.27C626.875 1088.43 627.035 1088.64 627.19 1088.92C627.494 1089.45 627.862 1089.85 628.29 1090.11C628.716 1090.37 629.298 1090.51 630.037 1090.51C630.633 1090.51 631.124 1090.37 631.508 1090.11C631.89 1089.84 632.081 1089.53 632.081 1089.19C632.081 1088.67 631.884 1088.29 631.486 1088.04C631.087 1087.8 630.431 1087.57 629.52 1087.35C628.492 1087.1 627.654 1086.83 627.009 1086.55C626.363 1086.27 625.847 1085.9 625.461 1085.44C625.074 1084.98 624.879 1084.41 624.879 1083.74C624.879 1083.14 625.057 1082.58 625.415 1082.05C625.773 1081.52 626.3 1081.09 626.998 1080.77C627.695 1080.45 628.536 1080.29 629.52 1080.29C630.294 1080.29 630.99 1080.37 631.605 1080.54C632.222 1080.69 632.737 1080.91 633.148 1081.18C633.561 1081.45 633.874 1081.75 634.09 1082.08C634.305 1082.41 634.412 1082.73 634.412 1083.04C634.412 1083.38 634.296 1083.66 634.068 1083.88C633.839 1084.1 633.512 1084.21 633.087 1084.21C632.783 1084.21 632.522 1084.13 632.305 1083.95C632.09 1083.78 631.844 1083.51 631.567 1083.16C631.342 1082.87 631.076 1082.64 630.769 1082.46C630.463 1082.29 630.046 1082.2 629.52 1082.2C628.98 1082.2 628.532 1082.31 628.174 1082.55C627.818 1082.78 627.638 1083.06 627.638 1083.4C627.638 1083.72 627.77 1083.97 628.031 1084.17C628.293 1084.37 628.648 1084.54 629.094 1084.67C629.539 1084.8 630.15 1084.96 630.933 1085.15C631.859 1085.38 632.615 1085.65 633.203 1085.96C633.791 1086.28 634.235 1086.65 634.54 1087.08C634.842 1087.5 634.992 1087.99 634.992 1088.54Z" fill="#5A5861"/>
<path fill-rule="evenodd" clip-rule="evenodd" d="M639.524 1081.99V1090.62C639.524 1091.22 639.382 1091.68 639.096 1091.98C638.811 1092.29 638.451 1092.44 638.012 1092.44C637.575 1092.44 637.219 1092.28 636.945 1091.97C636.671 1091.66 636.535 1091.21 636.535 1090.62V1082.08C636.535 1081.49 636.671 1081.04 636.945 1080.74C637.219 1080.44 637.575 1080.29 638.012 1080.29C638.451 1080.29 638.811 1080.44 639.096 1080.74C639.382 1081.04 639.524 1081.46 639.524 1081.99ZM638.045 1078.9C637.63 1078.9 637.276 1078.78 636.978 1078.52C636.682 1078.27 636.535 1077.91 636.535 1077.44C636.535 1077.01 636.688 1076.67 636.989 1076.39C637.292 1076.12 637.645 1075.98 638.045 1075.98C638.433 1075.98 638.776 1076.11 639.074 1076.35C639.373 1076.6 639.524 1076.96 639.524 1077.44C639.524 1077.9 639.377 1078.26 639.083 1078.52C638.795 1078.77 638.447 1078.9 638.045 1078.9Z" fill="#5A5861"/>
<path fill-rule="evenodd" clip-rule="evenodd" d="M643.953 1086.27C643.953 1087.48 644.217 1088.4 644.746 1089.02C645.275 1089.64 645.96 1089.95 646.8 1089.95C647.296 1089.95 647.762 1089.81 648.205 1089.55C648.646 1089.28 649.006 1088.88 649.285 1088.35C649.559 1087.81 649.7 1087.16 649.7 1086.39C649.7 1085.17 649.432 1084.22 648.896 1083.55C648.357 1082.87 647.652 1082.53 646.776 1082.53C645.924 1082.53 645.238 1082.85 644.726 1083.5C644.21 1084.15 643.953 1085.07 643.953 1086.27ZM652.611 1082.48V1091.16C652.611 1092.16 652.505 1093.01 652.292 1093.72C652.082 1094.44 651.743 1095.03 651.274 1095.5C650.809 1095.96 650.196 1096.31 649.443 1096.54C648.688 1096.76 647.748 1096.88 646.623 1096.88C645.595 1096.88 644.675 1096.73 643.865 1096.44C643.056 1096.16 642.434 1095.78 641.993 1095.33C641.556 1094.87 641.337 1094.4 641.337 1093.92C641.337 1093.56 641.462 1093.26 641.71 1093.03C641.956 1092.8 642.257 1092.68 642.606 1092.68C643.044 1092.68 643.427 1092.88 643.756 1093.27C643.916 1093.46 644.081 1093.66 644.254 1093.86C644.427 1094.06 644.616 1094.23 644.823 1094.38C645.031 1094.52 645.281 1094.62 645.573 1094.69C645.863 1094.76 646.201 1094.8 646.579 1094.8C647.354 1094.8 647.953 1094.69 648.379 1094.47C648.807 1094.26 649.107 1093.96 649.278 1093.57C649.448 1093.19 649.551 1092.77 649.581 1092.33C649.608 1091.89 649.63 1091.18 649.645 1090.2C649.184 1090.84 648.655 1091.33 648.052 1091.67C647.452 1092 646.732 1092.17 645.902 1092.17C644.902 1092.17 644.028 1091.91 643.28 1091.4C642.533 1090.89 641.956 1090.18 641.556 1089.26C641.155 1088.34 640.955 1087.28 640.955 1086.08C640.955 1085.18 641.076 1084.36 641.321 1083.64C641.567 1082.92 641.914 1082.31 642.366 1081.82C642.819 1081.32 643.341 1080.95 643.931 1080.69C644.522 1080.44 645.171 1080.32 645.88 1080.32C646.726 1080.32 647.459 1080.48 648.08 1080.8C648.699 1081.13 649.276 1081.64 649.808 1082.33V1081.92C649.808 1081.41 649.935 1081.01 650.192 1080.72C650.448 1080.44 650.776 1080.29 651.177 1080.29C651.754 1080.29 652.136 1080.48 652.325 1080.86C652.516 1081.23 652.611 1081.78 652.611 1082.48Z" fill="#5A5861"/>
<path fill-rule="evenodd" clip-rule="evenodd" d="M657.362 1081.95V1082.31C657.885 1081.62 658.458 1081.11 659.085 1080.78C659.707 1080.46 660.424 1080.29 661.234 1080.29C662.022 1080.29 662.725 1080.46 663.348 1080.81C663.967 1081.15 664.432 1081.64 664.736 1082.26C664.935 1082.63 665.062 1083.02 665.119 1083.45C665.177 1083.87 665.209 1084.41 665.209 1085.07V1090.62C665.209 1091.22 665.071 1091.68 664.797 1091.98C664.523 1092.29 664.169 1092.44 663.73 1092.44C663.285 1092.44 662.924 1092.28 662.646 1091.97C662.369 1091.66 662.231 1091.21 662.231 1090.62V1085.64C662.231 1084.66 662.093 1083.91 661.82 1083.38C661.546 1082.87 661.002 1082.6 660.183 1082.6C659.652 1082.6 659.166 1082.76 658.728 1083.08C658.289 1083.4 657.968 1083.83 657.764 1084.39C657.619 1084.83 657.545 1085.66 657.545 1086.88V1090.62C657.545 1091.23 657.404 1091.69 657.125 1091.99C656.844 1092.29 656.482 1092.44 656.036 1092.44C655.606 1092.44 655.251 1092.28 654.974 1091.97C654.697 1091.66 654.559 1091.21 654.559 1090.62V1081.99C654.559 1081.42 654.684 1081 654.93 1080.72C655.178 1080.44 655.518 1080.29 655.947 1080.29C656.21 1080.29 656.447 1080.36 656.66 1080.48C656.87 1080.6 657.04 1080.79 657.169 1081.04C657.296 1081.29 657.362 1081.59 657.362 1081.95Z" fill="#5A5861"/>
<path fill-rule="evenodd" clip-rule="evenodd" d="M669.695 1085.41H675.113C675.04 1084.39 674.764 1083.62 674.287 1083.11C673.808 1082.61 673.179 1082.35 672.399 1082.35C671.653 1082.35 671.041 1082.61 670.564 1083.12C670.086 1083.63 669.798 1084.4 669.695 1085.41ZM675.538 1087.1H669.695C669.702 1087.78 669.838 1088.38 670.105 1088.9C670.373 1089.41 670.725 1089.81 671.168 1090.07C671.607 1090.33 672.096 1090.46 672.628 1090.46C672.985 1090.46 673.312 1090.42 673.607 1090.34C673.901 1090.25 674.19 1090.12 674.467 1089.94C674.742 1089.76 674.998 1089.57 675.235 1089.37C675.466 1089.16 675.769 1088.88 676.142 1088.53C676.295 1088.4 676.513 1088.34 676.8 1088.34C677.105 1088.34 677.353 1088.42 677.542 1088.59C677.733 1088.76 677.826 1088.99 677.826 1089.3C677.826 1089.57 677.722 1089.88 677.51 1090.25C677.297 1090.61 676.978 1090.96 676.552 1091.29C676.124 1091.62 675.589 1091.89 674.943 1092.11C674.296 1092.33 673.554 1092.44 672.715 1092.44C670.797 1092.44 669.304 1091.89 668.238 1090.8C667.175 1089.7 666.64 1088.22 666.64 1086.35C666.64 1085.47 666.773 1084.64 667.035 1083.89C667.298 1083.13 667.682 1082.49 668.185 1081.95C668.687 1081.41 669.307 1080.99 670.044 1080.7C670.78 1080.42 671.6 1080.27 672.498 1080.27C673.664 1080.27 674.665 1080.52 675.501 1081.01C676.337 1081.5 676.961 1082.14 677.378 1082.92C677.793 1083.7 678.003 1084.5 678.003 1085.31C678.003 1086.06 677.786 1086.54 677.356 1086.77C676.926 1086.99 676.32 1087.1 675.538 1087.1Z" fill="#5A5861"/>
<path fill-rule="evenodd" clip-rule="evenodd" d="M681.839 1086.35C681.839 1087.16 681.966 1087.85 682.218 1088.41C682.468 1088.99 682.813 1089.41 683.252 1089.7C683.691 1089.99 684.167 1090.14 684.685 1090.14C685.212 1090.14 685.691 1090 686.125 1089.72C686.558 1089.45 686.907 1089.03 687.164 1088.46C687.423 1087.9 687.552 1087.19 687.552 1086.35C687.552 1085.55 687.423 1084.87 687.164 1084.29C686.907 1083.72 686.556 1083.28 686.114 1082.98C685.671 1082.68 685.188 1082.53 684.662 1082.53C684.117 1082.53 683.627 1082.68 683.197 1082.99C682.767 1083.3 682.431 1083.75 682.196 1084.33C681.957 1084.91 681.839 1085.58 681.839 1086.35ZM687.715 1090.74V1090.44C687.317 1090.9 686.92 1091.27 686.529 1091.56C686.139 1091.85 685.717 1092.07 685.259 1092.22C684.804 1092.37 684.306 1092.44 683.766 1092.44C683.05 1092.44 682.39 1092.29 681.779 1091.99C681.171 1091.69 680.642 1091.25 680.199 1090.69C679.753 1090.13 679.417 1089.47 679.187 1088.71C678.956 1087.95 678.84 1087.13 678.84 1086.25C678.84 1084.38 679.297 1082.93 680.208 1081.88C681.121 1080.84 682.321 1080.32 683.808 1080.32C684.672 1080.32 685.397 1080.46 685.989 1080.76C686.578 1081.06 687.157 1081.51 687.715 1082.12V1077.71C687.715 1077.1 687.838 1076.64 688.083 1076.32C688.327 1076.01 688.678 1075.85 689.13 1075.85C689.581 1075.85 689.929 1075.99 690.175 1076.29C690.419 1076.57 690.542 1076.99 690.542 1077.56V1090.74C690.542 1091.3 690.41 1091.73 690.147 1092.02C689.884 1092.3 689.546 1092.44 689.13 1092.44C688.72 1092.44 688.382 1092.29 688.117 1092C687.849 1091.7 687.715 1091.28 687.715 1090.74Z" fill="#5A5861"/>
<path fill-rule="evenodd" clip-rule="evenodd" d="M700.073 1086.43C700.073 1087.62 700.345 1088.54 700.889 1089.17C701.432 1089.81 702.145 1090.14 703.029 1090.14C703.78 1090.14 704.428 1089.81 704.97 1089.15C705.514 1088.5 705.786 1087.57 705.786 1086.35C705.786 1085.56 705.674 1084.88 705.448 1084.31C705.22 1083.74 704.9 1083.3 704.485 1082.99C704.068 1082.68 703.583 1082.53 703.029 1082.53C702.459 1082.53 701.95 1082.68 701.508 1082.99C701.063 1083.3 700.712 1083.75 700.455 1084.34C700.2 1084.92 700.073 1085.62 700.073 1086.43ZM699.93 1077.56V1082.12C700.494 1081.54 701.065 1081.09 701.649 1080.78C702.233 1080.47 702.955 1080.32 703.818 1080.32C704.81 1080.32 705.679 1080.55 706.429 1081.02C707.174 1081.49 707.755 1082.18 708.168 1083.07C708.579 1083.96 708.787 1085.02 708.787 1086.25C708.787 1087.16 708.671 1087.98 708.442 1088.74C708.21 1089.49 707.878 1090.15 707.441 1090.7C707.002 1091.26 706.471 1091.69 705.848 1091.99C705.224 1092.29 704.535 1092.44 703.784 1092.44C703.324 1092.44 702.891 1092.39 702.487 1092.28C702.083 1092.17 701.737 1092.03 701.451 1091.85C701.168 1091.67 700.925 1091.48 700.725 1091.29C700.525 1091.1 700.259 1090.82 699.93 1090.44V1090.74C699.93 1091.3 699.796 1091.72 699.526 1092.01C699.258 1092.3 698.914 1092.44 698.497 1092.44C698.075 1092.44 697.737 1092.3 697.485 1092.01C697.234 1091.72 697.109 1091.3 697.109 1090.74V1077.69C697.109 1077.08 697.23 1076.63 697.472 1076.32C697.718 1076 698.06 1075.85 698.497 1075.85C698.958 1075.85 699.311 1076 699.559 1076.29C699.807 1076.59 699.93 1077.01 699.93 1077.56Z" fill="#5A5861"/>
<path fill-rule="evenodd" clip-rule="evenodd" d="M712.659 1092.82L712.93 1092.15L709.253 1082.89C709.027 1082.35 708.913 1081.97 708.913 1081.73C708.913 1081.47 708.981 1081.24 709.11 1081.02C709.242 1080.8 709.422 1080.62 709.652 1080.49C709.883 1080.36 710.122 1080.29 710.368 1080.29C710.8 1080.29 711.125 1080.43 711.343 1080.71C711.564 1080.98 711.755 1081.37 711.924 1081.88L714.451 1089.24L716.848 1082.39C717.038 1081.84 717.21 1081.41 717.364 1081.09C717.517 1080.78 717.679 1080.57 717.851 1080.46C718.02 1080.35 718.264 1080.29 718.579 1080.29C718.806 1080.29 719.021 1080.35 719.231 1080.48C719.436 1080.6 719.598 1080.76 719.712 1080.96C719.824 1081.17 719.883 1081.38 719.883 1081.61C719.851 1081.74 719.806 1081.94 719.739 1082.2C719.671 1082.45 719.592 1082.71 719.499 1082.98L715.603 1093.18C715.265 1094.08 714.938 1094.78 714.617 1095.29C714.295 1095.8 713.871 1096.19 713.342 1096.46C712.811 1096.74 712.098 1096.88 711.202 1096.88C710.326 1096.88 709.67 1096.78 709.233 1096.59C708.794 1096.4 708.575 1096.06 708.575 1095.55C708.575 1095.21 708.68 1094.94 708.888 1094.76C709.095 1094.57 709.404 1094.48 709.812 1094.48C709.971 1094.48 710.129 1094.5 710.284 1094.55C710.473 1094.59 710.636 1094.61 710.774 1094.61C711.116 1094.61 711.388 1094.56 711.584 1094.46C711.781 1094.35 711.959 1094.18 712.117 1093.92C712.273 1093.68 712.453 1093.3 712.659 1092.82Z" fill="#5A5861"/>
<path fill-rule="evenodd" clip-rule="evenodd" d="M755.945 1080.55H756.66V1079.65C756.66 1078.72 756.774 1077.98 757.011 1077.42C757.248 1076.87 757.654 1076.47 758.216 1076.22C758.783 1075.97 759.558 1075.84 760.541 1075.84C762.291 1075.84 763.16 1076.27 763.16 1077.13C763.16 1077.4 763.07 1077.64 762.883 1077.83C762.705 1078.03 762.488 1078.13 762.242 1078.13C762.126 1078.13 761.919 1078.11 761.632 1078.06C761.358 1078.02 761.11 1078 760.914 1078C760.376 1078 760.032 1078.16 759.874 1078.48C759.727 1078.79 759.648 1079.25 759.648 1079.84V1080.55H760.376C761.516 1080.55 762.084 1080.89 762.084 1081.58C762.084 1082.07 761.937 1082.38 761.632 1082.51C761.331 1082.64 760.91 1082.71 760.376 1082.71H759.648V1090.63C759.648 1091.21 759.507 1091.66 759.22 1091.97C758.945 1092.28 758.583 1092.44 758.137 1092.44C757.714 1092.44 757.362 1092.28 757.079 1091.97C756.796 1091.66 756.66 1091.21 756.66 1090.63V1082.71H755.833C755.389 1082.71 755.049 1082.61 754.805 1082.41C754.564 1082.21 754.443 1081.95 754.443 1081.63C754.443 1080.9 754.944 1080.55 755.945 1080.55Z" fill="#5A5861"/>
<path fill-rule="evenodd" clip-rule="evenodd" d="M765.726 1088.13V1090.63C765.726 1091.23 765.571 1091.69 765.296 1091.99C765.009 1092.29 764.649 1092.44 764.216 1092.44C763.775 1092.44 763.422 1092.29 763.147 1091.98C762.873 1091.67 762.73 1091.22 762.73 1090.63V1082.3C762.73 1080.96 763.215 1080.29 764.183 1080.29C764.683 1080.29 765.041 1080.44 765.259 1080.76C765.478 1081.07 765.601 1081.53 765.625 1082.15C765.981 1081.53 766.343 1081.07 766.719 1080.76C767.1 1080.44 767.599 1080.29 768.226 1080.29C768.861 1080.29 769.464 1080.44 770.053 1080.76C770.648 1081.07 770.942 1081.49 770.942 1082.01C770.942 1082.37 770.817 1082.68 770.566 1082.91C770.314 1083.15 770.046 1083.27 769.754 1083.27C769.64 1083.27 769.372 1083.19 768.955 1083.06C768.534 1082.93 768.161 1082.86 767.845 1082.86C767.408 1082.86 767.05 1082.98 766.773 1083.2C766.494 1083.44 766.275 1083.78 766.121 1084.23C765.974 1084.68 765.869 1085.23 765.808 1085.85C765.751 1086.47 765.726 1087.23 765.726 1088.13Z" fill="#5A5861"/>
<path fill-rule="evenodd" clip-rule="evenodd" d="M773.616 1085.4H779.032C778.961 1084.38 778.693 1083.61 778.211 1083.11C777.73 1082.6 777.106 1082.35 776.321 1082.35C775.577 1082.35 774.964 1082.6 774.488 1083.12C774.011 1083.63 773.717 1084.4 773.616 1085.4ZM779.464 1087.1H773.616C773.627 1087.77 773.759 1088.38 774.025 1088.89C774.297 1089.41 774.65 1089.8 775.091 1090.07C775.535 1090.33 776.016 1090.46 776.555 1090.46C776.909 1090.46 777.236 1090.42 777.53 1090.33C777.824 1090.25 778.114 1090.12 778.391 1089.94C778.671 1089.76 778.922 1089.57 779.155 1089.36C779.389 1089.16 779.694 1088.88 780.067 1088.53C780.221 1088.4 780.439 1088.33 780.719 1088.33C781.031 1088.33 781.275 1088.42 781.468 1088.59C781.659 1088.76 781.749 1088.99 781.749 1089.3C781.749 1089.57 781.648 1089.88 781.44 1090.24C781.226 1090.61 780.91 1090.95 780.478 1091.29C780.048 1091.62 779.51 1091.9 778.867 1092.11C778.222 1092.33 777.477 1092.44 776.641 1092.44C774.718 1092.44 773.224 1091.9 772.163 1090.8C771.097 1089.7 770.559 1088.22 770.559 1086.34C770.559 1085.46 770.695 1084.64 770.962 1083.88C771.219 1083.12 771.603 1082.48 772.11 1081.94C772.611 1081.4 773.228 1080.98 773.967 1080.7C774.703 1080.41 775.52 1080.27 776.42 1080.27C777.587 1080.27 778.588 1080.51 779.424 1081.01C780.259 1081.5 780.891 1082.13 781.301 1082.92C781.716 1083.7 781.923 1084.49 781.923 1085.31C781.923 1086.05 781.709 1086.54 781.279 1086.76C780.849 1086.99 780.245 1087.1 779.464 1087.1Z" fill="#5A5861"/>
<path fill-rule="evenodd" clip-rule="evenodd" d="M786.047 1085.4H791.468C791.392 1084.38 791.115 1083.61 790.643 1083.11C790.158 1082.6 789.533 1082.35 788.747 1082.35C788.005 1082.35 787.395 1082.6 786.914 1083.12C786.438 1083.63 786.143 1084.4 786.047 1085.4ZM791.894 1087.1H786.047C786.054 1087.77 786.194 1088.38 786.455 1088.89C786.725 1089.41 787.076 1089.8 787.517 1090.07C787.959 1090.33 788.446 1090.46 788.984 1090.46C789.337 1090.46 789.666 1090.42 789.958 1090.33C790.255 1090.25 790.538 1090.12 790.821 1089.94C791.102 1089.76 791.352 1089.57 791.585 1089.36C791.815 1089.16 792.12 1088.88 792.492 1088.53C792.65 1088.4 792.869 1088.33 793.15 1088.33C793.459 1088.33 793.707 1088.42 793.899 1088.59C794.09 1088.76 794.175 1088.99 794.175 1089.3C794.175 1089.57 794.076 1089.88 793.861 1090.24C793.655 1090.61 793.335 1090.95 792.902 1091.29C792.48 1091.62 791.938 1091.9 791.295 1092.11C790.652 1092.33 789.903 1092.44 789.067 1092.44C787.144 1092.44 785.656 1091.9 784.587 1090.8C783.525 1089.7 782.987 1088.22 782.987 1086.34C782.987 1085.46 783.123 1084.64 783.387 1083.88C783.65 1083.12 784.03 1082.48 784.535 1081.94C785.039 1081.4 785.656 1080.98 786.394 1080.7C787.129 1080.41 787.952 1080.27 788.848 1080.27C790.011 1080.27 791.012 1080.51 791.862 1081.01C792.691 1081.5 793.319 1082.13 793.727 1082.92C794.144 1083.7 794.355 1084.49 794.355 1085.31C794.355 1086.05 794.136 1086.54 793.71 1086.76C793.279 1086.99 792.672 1087.1 791.894 1087.1Z" fill="#5A5861"/>
<path fill-rule="evenodd" clip-rule="evenodd" d="M804.295 1086.31C804.295 1085.52 804.174 1084.85 803.933 1084.28C803.693 1083.71 803.358 1083.28 802.936 1082.98C802.512 1082.68 802.036 1082.52 801.516 1082.52C800.693 1082.52 799.997 1082.85 799.431 1083.5C798.864 1084.15 798.581 1085.1 798.581 1086.37C798.581 1087.55 798.86 1088.48 799.428 1089.14C799.99 1089.8 800.679 1090.13 801.516 1090.13C802.01 1090.13 802.473 1089.99 802.896 1089.7C803.323 1089.41 803.663 1088.98 803.915 1088.4C804.17 1087.83 804.295 1087.13 804.295 1086.31ZM798.438 1081.97V1082.33C799 1081.63 799.586 1081.13 800.195 1080.8C800.794 1080.48 801.483 1080.31 802.251 1080.31C803.166 1080.31 804.02 1080.55 804.791 1081.02C805.566 1081.5 806.172 1082.19 806.624 1083.1C807.072 1084.02 807.298 1085.09 807.298 1086.34C807.298 1087.26 807.17 1088.11 806.911 1088.88C806.652 1089.65 806.294 1090.29 805.842 1090.82C805.386 1091.33 804.855 1091.74 804.238 1092.02C803.614 1092.3 802.958 1092.44 802.251 1092.44C801.397 1092.44 800.675 1092.27 800.098 1091.93C799.521 1091.59 798.968 1091.08 798.438 1090.42V1094.91C798.438 1096.21 797.96 1096.88 797.005 1096.88C796.439 1096.88 796.074 1096.71 795.886 1096.37C795.71 1096.03 795.618 1095.54 795.618 1094.88V1081.99C795.618 1081.42 795.739 1081 795.987 1080.71C796.235 1080.43 796.575 1080.29 797.005 1080.29C797.429 1080.29 797.773 1080.43 798.035 1080.72C798.307 1081.01 798.438 1081.42 798.438 1081.97Z" fill="#5A5861"/>
<path fill-rule="evenodd" clip-rule="evenodd" d="M811.786 1081.99V1090.63C811.786 1091.22 811.643 1091.67 811.36 1091.98C811.073 1092.29 810.713 1092.44 810.276 1092.44C809.839 1092.44 809.486 1092.28 809.207 1091.97C808.939 1091.65 808.797 1091.21 808.797 1090.63V1082.07C808.797 1081.48 808.939 1081.04 809.207 1080.74C809.486 1080.44 809.839 1080.29 810.276 1080.29C810.713 1080.29 811.073 1080.44 811.36 1080.74C811.643 1081.04 811.786 1081.46 811.786 1081.99ZM810.309 1078.9C809.888 1078.9 809.538 1078.77 809.244 1078.51C808.944 1078.25 808.797 1077.9 808.797 1077.43C808.797 1077.01 808.948 1076.66 809.253 1076.38C809.554 1076.11 809.907 1075.97 810.309 1075.97C810.7 1075.97 811.04 1076.09 811.338 1076.34C811.635 1076.59 811.786 1076.96 811.786 1077.43C811.786 1077.89 811.643 1078.25 811.352 1078.51C811.058 1078.77 810.713 1078.9 810.309 1078.9Z" fill="#5A5861"/>
<path fill-rule="evenodd" clip-rule="evenodd" d="M821.419 1091.07L818.79 1086.74L817.165 1088.27V1090.65C817.165 1091.22 817.014 1091.66 816.709 1091.97C816.415 1092.28 816.057 1092.44 815.666 1092.44C815.207 1092.44 814.839 1092.29 814.582 1091.98C814.319 1091.67 814.184 1091.22 814.184 1090.63V1077.88C814.184 1077.22 814.316 1076.71 814.567 1076.36C814.823 1076.01 815.196 1075.84 815.666 1075.84C816.125 1075.84 816.487 1076 816.759 1076.32C817.029 1076.63 817.165 1077.09 817.165 1077.7V1084.95L820.526 1081.42C820.943 1080.99 821.255 1080.69 821.481 1080.53C821.7 1080.37 821.961 1080.29 822.273 1080.29C822.649 1080.29 822.958 1080.41 823.213 1080.64C823.458 1080.88 823.582 1081.18 823.582 1081.53C823.582 1081.97 823.175 1082.56 822.366 1083.29L820.781 1084.74L823.845 1089.56C824.067 1089.92 824.236 1090.19 824.332 1090.37C824.429 1090.56 824.482 1090.75 824.482 1090.91C824.482 1091.38 824.35 1091.75 824.093 1092.03C823.83 1092.3 823.485 1092.44 823.07 1092.44C822.704 1092.44 822.42 1092.35 822.223 1092.14C822.028 1091.95 821.757 1091.59 821.419 1091.07Z" fill="#5A5861"/>
<path fill-rule="evenodd" clip-rule="evenodd" d="M827.916 1092.44C827.463 1092.44 827.077 1092.29 826.746 1092C826.42 1091.71 826.25 1091.3 826.25 1090.77C826.25 1090.33 826.412 1089.95 826.724 1089.63C827.04 1089.31 827.424 1089.14 827.887 1089.14C828.346 1089.14 828.734 1089.31 829.064 1089.62C829.386 1089.94 829.551 1090.33 829.551 1090.77C829.551 1091.29 829.386 1091.71 829.064 1091.99C828.734 1092.29 828.35 1092.44 827.916 1092.44Z" fill="#5A5861"/>
<path fill-rule="evenodd" clip-rule="evenodd" d="M842.778 1088.74C842.778 1089.11 842.668 1089.51 842.442 1089.93C842.223 1090.36 841.882 1090.76 841.422 1091.14C840.967 1091.52 840.394 1091.83 839.701 1092.07C839.009 1092.3 838.223 1092.42 837.358 1092.42C835.506 1092.42 834.064 1091.88 833.028 1090.81C831.998 1089.73 831.478 1088.28 831.478 1086.48C831.478 1085.24 831.715 1084.16 832.193 1083.22C832.663 1082.28 833.352 1081.55 834.244 1081.04C835.144 1080.52 836.221 1080.27 837.466 1080.27C838.241 1080.27 838.946 1080.38 839.6 1080.61C840.245 1080.83 840.787 1081.13 841.239 1081.48C841.689 1081.84 842.032 1082.22 842.265 1082.62C842.506 1083.03 842.62 1083.41 842.62 1083.76C842.62 1084.11 842.491 1084.42 842.227 1084.67C841.953 1084.92 841.63 1085.04 841.257 1085.04C841.007 1085.04 840.802 1084.98 840.636 1084.85C840.469 1084.72 840.285 1084.52 840.085 1084.23C839.718 1083.67 839.338 1083.25 838.937 1082.98C838.542 1082.7 838.035 1082.56 837.422 1082.56C836.544 1082.56 835.829 1082.91 835.288 1083.6C834.746 1084.28 834.477 1085.24 834.477 1086.43C834.477 1086.99 834.549 1087.51 834.685 1087.98C834.821 1088.45 835.023 1088.85 835.288 1089.18C835.554 1089.51 835.87 1089.76 836.239 1089.94C836.612 1090.11 837.025 1090.2 837.466 1090.2C838.065 1090.2 838.577 1090.06 839.005 1089.78C839.439 1089.5 839.815 1089.08 840.142 1088.51C840.324 1088.18 840.519 1087.92 840.726 1087.72C840.937 1087.53 841.2 1087.44 841.505 1087.44C841.871 1087.44 842.175 1087.58 842.412 1087.85C842.657 1088.13 842.778 1088.43 842.778 1088.74Z" fill="#5A5861"/>
<path fill-rule="evenodd" clip-rule="evenodd" d="M852.674 1086.37C852.674 1085.15 852.406 1084.2 851.871 1083.52C851.337 1082.84 850.615 1082.5 849.711 1082.5C849.125 1082.5 848.609 1082.65 848.165 1082.95C847.717 1083.25 847.379 1083.7 847.138 1084.3C846.899 1084.89 846.772 1085.58 846.772 1086.37C846.772 1087.15 846.892 1087.83 847.131 1088.41C847.371 1089 847.709 1089.44 848.15 1089.76C848.594 1090.06 849.116 1090.22 849.711 1090.22C850.615 1090.22 851.337 1089.88 851.871 1089.19C852.406 1088.51 852.674 1087.57 852.674 1086.37ZM855.673 1086.37C855.673 1087.25 855.534 1088.08 855.264 1088.83C854.981 1089.58 854.582 1090.23 854.055 1090.77C853.532 1091.31 852.9 1091.72 852.176 1092.01C851.436 1092.3 850.619 1092.44 849.711 1092.44C848.808 1092.44 847.988 1092.3 847.268 1092C846.546 1091.71 845.915 1091.29 845.391 1090.75C844.86 1090.2 844.458 1089.56 844.179 1088.82C843.916 1088.08 843.777 1087.26 843.777 1086.37C843.777 1085.46 843.92 1084.63 844.19 1083.88C844.469 1083.13 844.868 1082.48 845.387 1081.95C845.907 1081.42 846.532 1081.01 847.268 1080.72C848.007 1080.43 848.82 1080.29 849.711 1080.29C850.615 1080.29 851.436 1080.43 852.176 1080.73C852.911 1081.02 853.539 1081.44 854.07 1081.97C854.597 1082.52 854.996 1083.16 855.268 1083.9C855.538 1084.65 855.673 1085.47 855.673 1086.37Z" fill="#5A5861"/>
<path fill-rule="evenodd" clip-rule="evenodd" d="M867.074 1086.59V1090.56C867.074 1091.19 866.934 1091.65 866.646 1091.97C866.359 1092.28 865.99 1092.44 865.52 1092.44C865.068 1092.44 864.699 1092.28 864.427 1091.97C864.139 1091.65 863.995 1091.19 863.995 1090.56V1085.8C863.995 1085.05 863.97 1084.46 863.924 1084.04C863.87 1083.63 863.731 1083.29 863.505 1083.02C863.279 1082.75 862.919 1082.62 862.432 1082.62C861.451 1082.62 860.81 1082.95 860.502 1083.63C860.193 1084.3 860.032 1085.26 860.032 1086.52V1090.56C860.032 1091.18 859.892 1091.65 859.615 1091.97C859.328 1092.28 858.963 1092.44 858.503 1092.44C858.048 1092.44 857.679 1092.28 857.39 1091.97C857.1 1091.65 856.957 1091.18 856.957 1090.56V1082.01C856.957 1081.44 857.085 1081.02 857.344 1080.73C857.607 1080.43 857.95 1080.29 858.367 1080.29C858.779 1080.29 859.121 1080.43 859.396 1080.7C859.67 1080.97 859.806 1081.35 859.806 1081.83V1082.11C860.325 1081.5 860.882 1081.04 861.47 1080.75C862.061 1080.45 862.715 1080.31 863.442 1080.31C864.194 1080.31 864.838 1080.46 865.377 1080.76C865.915 1081.06 866.359 1081.51 866.712 1082.11C867.217 1081.5 867.759 1081.05 868.336 1080.75C868.914 1080.46 869.55 1080.31 870.251 1080.31C871.067 1080.31 871.776 1080.48 872.366 1080.79C872.953 1081.11 873.394 1081.58 873.688 1082.17C873.943 1082.71 874.07 1083.56 874.07 1084.72V1090.56C874.07 1091.19 873.929 1091.65 873.646 1091.97C873.363 1092.28 872.983 1092.44 872.516 1092.44C872.064 1092.44 871.695 1092.28 871.403 1091.97C871.117 1091.65 870.973 1091.18 870.973 1090.56V1085.53C870.973 1084.89 870.944 1084.38 870.891 1083.99C870.837 1083.6 870.69 1083.28 870.45 1083.02C870.206 1082.75 869.84 1082.62 869.351 1082.62C868.956 1082.62 868.584 1082.74 868.229 1082.97C867.876 1083.2 867.601 1083.52 867.401 1083.91C867.184 1084.41 867.074 1085.31 867.074 1086.59Z" fill="#5A5861"/>
<path fill-rule="evenodd" clip-rule="evenodd" d="M727.978 1085.65C727.976 1085.64 727.976 1085.63 727.976 1085.62C727.976 1085.63 727.976 1085.64 727.978 1085.65Z" fill="#5A5861"/>
<path fill-rule="evenodd" clip-rule="evenodd" d="M728.13 1086.6C728.134 1086.6 728.134 1086.6 728.134 1086.6C728.077 1086.32 728.033 1086.06 727.998 1085.79C728.033 1086.06 728.077 1086.33 728.13 1086.6Z" fill="#5A5861"/>
<path fill-rule="evenodd" clip-rule="evenodd" d="M729.117 1089.37C729.112 1089.36 729.108 1089.35 729.098 1089.33C729.108 1089.35 729.112 1089.36 729.117 1089.37Z" fill="#5A5861"/>
<path fill-rule="evenodd" clip-rule="evenodd" d="M729.025 1089.19C729.001 1089.14 728.975 1089.08 728.951 1089.03C728.975 1089.09 729.001 1089.14 729.025 1089.19Z" fill="#5A5861"/>
<path fill-rule="evenodd" clip-rule="evenodd" d="M728.408 1087.67C728.555 1088.13 728.731 1088.57 728.935 1089C728.728 1088.56 728.555 1088.12 728.413 1087.67C728.413 1087.67 728.412 1087.67 728.408 1087.67Z" fill="#5A5861"/>
<path fill-rule="evenodd" clip-rule="evenodd" d="M739.548 1074.19C740.125 1074.19 740.551 1074.24 741.039 1074.32L741.179 1073.44C741.179 1073.44 739.831 1073.03 738.054 1073.17L737.915 1072.69C738.466 1072.58 738.879 1072.09 738.879 1071.5C738.879 1070.83 738.334 1070.29 737.661 1070.29C736.991 1070.29 736.445 1070.83 736.445 1071.5C736.445 1072.09 736.859 1072.58 737.41 1072.69L737.564 1073.23C735.679 1073.49 734.181 1074.22 734.181 1074.22L734.447 1075.03C735.586 1074.66 736.574 1074.42 737.47 1074.33C738.346 1074.23 739.01 1074.19 739.548 1074.19Z" fill="#5A5861"/>
<path fill-rule="evenodd" clip-rule="evenodd" d="M729.096 1078.64L729.104 1078.63C729.15 1078.57 729.192 1078.52 729.234 1078.47L728.874 1078.21L728.312 1077.79C728.279 1077.84 727.396 1078.65 726.698 1080.15C726.668 1080.11 726.632 1080.06 726.593 1080.02C726.385 1079.79 726.093 1079.67 725.72 1079.68C725.715 1079.68 725.709 1079.68 725.704 1079.68C725.474 1079.68 725.315 1079.6 725.212 1079.51C725.315 1079.38 725.377 1079.21 725.377 1079.03C725.377 1078.61 725.03 1078.26 724.604 1078.26C724.179 1078.26 723.836 1078.61 723.836 1079.03C723.836 1079.46 724.179 1079.8 724.604 1079.8C724.672 1079.8 724.736 1079.79 724.797 1079.78C724.988 1079.99 725.287 1080.17 725.728 1080.17C725.956 1080.16 726.121 1080.22 726.231 1080.34C726.36 1080.49 726.402 1080.69 726.417 1080.84C726.415 1080.84 726.415 1080.84 726.411 1080.84C725.91 1082.21 726.055 1083.92 726.055 1083.92L727.273 1083.97C727.296 1083.35 727.386 1082.26 727.701 1081.4C728.307 1079.73 729.067 1078.68 729.096 1078.64Z" fill="#5A5861"/>
<path fill-rule="evenodd" clip-rule="evenodd" d="M750.148 1075.21C749.723 1075.21 749.376 1075.56 749.376 1075.98C749.376 1076.05 749.387 1076.11 749.404 1076.17C749.193 1076.36 749.011 1076.67 749.014 1077.11C749.016 1077.34 748.959 1077.5 748.838 1077.61C748.741 1077.7 748.616 1077.74 748.496 1077.77C747.589 1076.5 746.474 1075.73 746.474 1075.73L745.598 1076.67C746.259 1077.26 746.933 1078.02 747.589 1078.96C748.045 1079.61 748.511 1080.44 748.899 1081.28L750.08 1080.72C750.08 1080.72 749.541 1079.39 748.785 1078.19C748.913 1078.15 749.046 1078.07 749.165 1077.97C749.395 1077.76 749.508 1077.47 749.501 1077.1C749.497 1076.86 749.576 1076.7 749.674 1076.59C749.802 1076.69 749.968 1076.75 750.148 1076.75C750.574 1076.75 750.919 1076.41 750.919 1075.98C750.919 1075.56 750.574 1075.21 750.148 1075.21Z" fill="#5A5861"/>
<path fill-rule="evenodd" clip-rule="evenodd" d="M747.083 1085.82C745.461 1086.61 742.789 1087.65 739.27 1088.14C737.888 1088.33 736.551 1088.41 735.319 1088.41C733.717 1088.41 732.301 1088.29 731.213 1088.15C729.974 1087.99 729.004 1087.8 728.412 1087.67C728.554 1088.12 728.726 1088.56 728.934 1089C728.938 1089.01 728.943 1089.02 728.951 1089.03C728.974 1089.08 729 1089.14 729.024 1089.19C729.048 1089.24 729.074 1089.29 729.099 1089.33C729.108 1089.35 729.112 1089.36 729.118 1089.37C729.467 1090.03 729.887 1090.63 730.365 1091.15C732.023 1092.97 733.713 1093.26 733.73 1093.26L733.757 1093.26L733.783 1093.28C733.796 1093.28 735.295 1093.76 737.574 1093.76C739.815 1093.76 742.017 1093.31 744.113 1092.42C745.665 1091.62 747.133 1090.42 747.862 1089.34C748.424 1088.51 748.83 1087.62 749.071 1086.7C749.199 1086.21 749.3 1085.42 749.243 1084.59C748.784 1084.9 748.062 1085.34 747.083 1085.82Z" fill="#5A5861"/>
<path fill-rule="evenodd" clip-rule="evenodd" d="M734.259 1078.17C736.053 1078.17 737.504 1079.63 737.504 1081.42C737.504 1083.21 736.053 1084.66 734.259 1084.66C732.468 1084.66 731.015 1083.21 731.015 1081.42C731.015 1079.63 732.468 1078.17 734.259 1078.17ZM743.757 1078.25C744.866 1078.25 745.766 1079.15 745.766 1080.26C745.766 1081.37 744.866 1082.27 743.757 1082.27C742.649 1082.27 741.747 1081.37 741.747 1080.26C741.747 1079.15 742.649 1078.25 743.757 1078.25ZM729.617 1079.02C729.571 1079.09 728.866 1080.09 728.311 1081.62C727.892 1082.77 727.913 1084.43 727.913 1084.45V1084.46C727.913 1084.85 727.933 1085.24 727.977 1085.62C727.977 1085.63 727.977 1085.64 727.979 1085.64C727.984 1085.69 727.992 1085.74 727.997 1085.79C728.032 1086.06 728.076 1086.32 728.133 1086.6C728.941 1086.8 733.755 1087.92 739.135 1087.17C742.51 1086.7 745.07 1085.71 746.624 1084.95C747.919 1084.33 748.747 1083.76 749.071 1083.53C748.747 1082.34 747.868 1080.49 747.061 1079.33C744.75 1076.03 742.258 1075.18 740.978 1074.97C740.489 1074.89 740.098 1074.84 739.547 1074.84C739.029 1074.84 738.392 1074.88 737.537 1074.97C736.681 1075.06 735.726 1075.29 734.619 1075.66C733.067 1076.18 731.662 1076.99 730.554 1078.02L730.517 1078.06C730.354 1078.21 730.012 1078.52 729.617 1079.02Z" fill="#5A5861"/>
<path fill-rule="evenodd" clip-rule="evenodd" d="M662.687 1002.55L633.671 998.016L647.289 973.523L662.687 1002.55Z" fill="#224679"/>
<path fill-rule="evenodd" clip-rule="evenodd" d="M633.671 998.017L641.299 1022.71L662.687 1002.56L633.671 998.017Z" fill="#14253D"/>
<path fill-rule="evenodd" clip-rule="evenodd" d="M798.902 942.455L734.776 879.637L797.934 1001.77L798.902 942.455Z" fill="#2187E6"/>
<path fill-rule="evenodd" clip-rule="evenodd" d="M797.934 1001.77L742.603 959.605L734.776 879.637" fill="#67A2D9"/>
<path fill-rule="evenodd" clip-rule="evenodd" d="M1011.24 957.318L1007.32 930.916L989.533 957.261L1011.24 957.318Z" fill="#14253D"/>
<path fill-rule="evenodd" clip-rule="evenodd" d="M989.533 957.261V941.483L1007.32 930.916" fill="#224679"/>
<path fill-rule="evenodd" clip-rule="evenodd" d="M1021.65 841.32L930.309 857.053L1023.21 916.68L1021.65 841.32Z" fill="#F1C162"/>
<path fill-rule="evenodd" clip-rule="evenodd" d="M1023.21 916.679L968.435 917.956L930.309 857.052" fill="#FFE141"/>
<path fill-rule="evenodd" clip-rule="evenodd" d="M639.522 1028.62L457.416 994.956L496.243 1028.8L639.522 1028.62Z" fill="#FFE141"/>
<path fill-rule="evenodd" clip-rule="evenodd" d="M639.522 1028.62L534.485 998.033L457.416 994.956L639.522 1028.62Z" fill="#FFC341"/>
<path fill-rule="evenodd" clip-rule="evenodd" d="M1088 773.569L1197 1116.89V600L1088 773.569Z" fill="#224679"/>
<path fill-rule="evenodd" clip-rule="evenodd" d="M1088 773.569L1059.24 940.706L1197 1116.89L1088 773.569Z" fill="#14253D"/>
<path fill-rule="evenodd" clip-rule="evenodd" d="M1059.24 940.706L1197 1116.89L1033.83 983.36L1059.24 940.706Z" fill="#67A2D9"/>
<path fill-rule="evenodd" clip-rule="evenodd" d="M1033.83 983.36L970.873 977.406L906.721 972.762L1197 1116.89L1033.83 983.36Z" fill="#2187E6"/>
<path fill-rule="evenodd" clip-rule="evenodd" d="M906.722 972.762L1197 1116.89L842.778 992.763L906.722 972.762Z" fill="#FFE141"/>
<path fill-rule="evenodd" clip-rule="evenodd" d="M842.779 992.763L814.184 1039.67L1197 1116.89L842.779 992.763Z" fill="#F1C162"/>
<path fill-rule="evenodd" clip-rule="evenodd" d="M723.836 1009.57L788.671 1116.89H1197L814.184 1039.67L723.836 1009.57Z" fill="#224679"/>
<mask id="mask0_788_12563" style="mask-type:alpha" maskUnits="userSpaceOnUse" x="278" y="1009" width="511" height="108">
<path d="M278.715 1009.57H788.67V1116.89H278.715V1009.57Z" fill="#7A62F1"/>
</mask>
<g mask="url(#mask0_788_12563)">
<path fill-rule="evenodd" clip-rule="evenodd" d="M723.835 1009.57L623.84 1056.27L788.67 1116.89L723.835 1009.57Z" fill="#14253D"/>
<path fill-rule="evenodd" clip-rule="evenodd" d="M467.884 1070.29L788.67 1116.89H278.605L467.884 1070.29Z" fill="#14253D"/>
</g>
<path fill-rule="evenodd" clip-rule="evenodd" d="M467.885 1070.29L623.842 1056.27L788.671 1116.89L467.885 1070.29Z" fill="#224679"/>
</svg>
