<svg width="764" height="611" viewBox="0 0 764 611" fill="none" xmlns="http://www.w3.org/2000/svg">
<g id="no_data_3">
<g id="Group 1847">
<path id="Vector" d="M754.458 195.212H295.341V530.817H761.946V202.699C761.946 198.564 758.593 195.212 754.458 195.212Z" fill="#4498F6"/>
<path id="Vector_2" d="M460.198 160.47H302.829C298.693 160.47 295.341 163.822 295.341 167.958V195.212H469.677L460.198 160.47Z" fill="#4498F6"/>
<path id="Vector_3" d="M670.697 384.741C579.599 358.881 490.519 333.301 402.832 307.983C424.9 205.72 486.693 105.532 490.839 1.71625C581.861 26.0246 670.885 50.4826 758.439 74.978C736.202 178.906 674.484 280.103 670.697 384.741Z" fill="#EBEBEB"/>
<path id="Vector_4" d="M670.697 384.742C579.581 359.032 490.481 333.639 402.738 308.47L402.211 308.321L402.305 307.834C424.297 205.534 485.996 105.327 489.953 1.474C489.953 1.21222 489.953 0.950442 489.953 0.68866L490.839 0.931753C581.936 25.371 670.979 49.8477 758.628 74.4178L759.231 74.5862L759.099 75.1471C736.579 179.019 674.692 280.16 670.697 384.742ZM670.697 384.742C674.277 280.029 735.844 178.794 757.912 74.8105C758.081 75.0349 758.232 75.278 758.402 75.5211C670.772 51.1192 581.785 26.7921 490.801 2.50244L491.725 1.96016C487.39 105.738 425.503 205.907 403.379 308.152L402.945 307.517C490.613 332.984 579.599 358.714 670.697 384.742Z" fill="#DBDBDB"/>
<path id="Vector_5" d="M656.28 194.801C642.731 230.684 601.63 250.691 563.393 239.453C525.156 228.215 504.973 190.313 518.165 154.617C531.356 118.921 570.931 98.5209 609.639 109.628C648.347 120.735 669.981 158.787 656.28 194.801Z" fill="#455A64"/>
<path id="Vector_6" d="M587.289 174.569C571.591 192.37 555.704 210.096 540.176 227.879C528.966 219.691 520.756 208.096 516.794 194.856C512.831 181.617 513.332 167.455 518.221 154.524C531.224 118.996 571.176 98.5957 609.695 109.534C648.215 120.473 669.887 159.011 656.262 194.707C633.283 187.976 610.292 181.263 587.289 174.569Z" fill="#DBDBDB"/>
<path id="Vector_7" d="M587.288 174.568C600.988 192.837 614.538 211.105 628.37 229.43C618.932 235.704 608.221 239.845 596.993 241.561C585.766 243.277 574.295 242.525 563.392 239.359C525.137 228.233 505.104 189.994 518.164 154.523C531.224 119.051 571.119 98.5948 609.638 109.534C648.157 120.472 669.829 159.01 656.204 194.706C633.264 187.975 610.291 181.262 587.288 174.568Z" fill="#DBDBDB"/>
<path id="Vector_8" d="M511.474 46.7435C548.448 56.9405 585.165 67.15 621.624 77.372C620.983 80.0085 620.323 82.6637 619.739 85.319C583.406 75.097 546.846 64.8875 510.061 54.6904C510.494 52.0352 510.984 49.3987 511.474 46.7435Z" fill="#DBDBDB"/>
<path id="Vector_9" d="M503.145 251.233C551.866 265.482 600.863 279.818 650.137 294.241C649.402 296.877 648.686 299.532 647.988 302.169C598.526 287.771 549.391 273.435 500.582 259.162C501.411 256.494 502.265 253.851 503.145 251.233Z" fill="#DBDBDB"/>
<path id="Vector_10" d="M496.775 271.072C545.772 285.371 595.152 299.75 644.916 314.21C644.275 316.865 643.672 319.521 643.031 322.157C593.104 307.684 543.554 293.28 494.381 278.944C495.192 276.308 495.964 273.69 496.775 271.072Z" fill="#DBDBDB"/>
<path id="Vector_11" d="M491.065 290.931C540.515 305.317 590.373 319.771 640.639 334.294C640.149 336.949 639.678 339.604 639.244 342.278C588.677 327.706 538.599 313.22 489.011 298.822C489.671 296.186 490.368 293.549 491.065 290.931Z" fill="#DBDBDB"/>
<path id="Vector_12" d="M474.331 251.458L456.692 246.278C457.578 243.66 458.482 241.061 459.387 238.443L477.082 243.604C476.115 246.222 475.198 248.84 474.331 251.458Z" fill="#4498F6"/>
<path id="Vector_13" d="M467.999 271.26L450.153 266.062C450.963 263.444 451.792 260.826 452.64 258.227L470.43 263.407C469.62 266.025 468.828 268.642 467.999 271.26Z" fill="#455A64"/>
<path id="Vector_14" d="M462.345 291.098L444.348 285.881C445.064 283.263 445.799 280.646 446.553 278.028L464.475 283.226C463.796 285.844 463.08 288.48 462.345 291.098Z" fill="#DBDBDB"/>
<path id="Vector_15" d="M367.611 451.142C368.377 386.319 369.2 321.827 370.079 257.666C373.848 257.666 377.687 257.74 381.594 257.89C380.714 321.939 379.866 386.238 379.05 450.786C375.23 450.911 371.417 451.029 367.611 451.142Z" fill="#DBDBDB"/>
<path id="Vector_16" d="M396.52 450.656C397.374 386.357 398.266 322.314 399.196 258.526C403.059 258.695 406.903 258.9 410.767 259.125C409.824 322.8 408.907 386.688 408.015 450.787C404.19 450.712 400.345 450.656 396.52 450.656Z" fill="#DBDBDB"/>
<path id="Vector_17" d="M425.597 451.328C426.527 387.428 427.469 323.734 428.424 260.245L440.051 261.143C439.059 324.557 438.085 388.132 437.13 451.87C433.311 451.671 429.467 451.49 425.597 451.328Z" fill="#DBDBDB"/>
<path id="Vector_18" d="M454.808 452.937C456.24 359.842 457.716 267.028 459.236 174.494L470.901 175.672C469.381 268.194 467.892 360.902 466.435 453.797C462.591 453.498 458.727 453.199 454.808 452.937Z" fill="#DBDBDB"/>
<path id="Vector_19" d="M484.205 455.293C485.688 362.522 487.202 269.945 488.747 177.56L500.431 178.832C498.911 271.254 497.39 363.763 495.87 456.359C491.988 455.985 488.087 455.63 484.205 455.293Z" fill="#DBDBDB"/>
<path id="Vector_20" d="M513.661 458.134C515.168 365.588 516.695 273.129 518.24 180.757L529.943 182.01C528.397 274.494 526.858 366.94 525.326 459.35L513.661 458.134Z" fill="#DBDBDB"/>
<path id="Vector_21" d="M543.134 461.257C544.679 368.836 546.212 276.37 547.732 183.861L559.397 185.021C557.902 277.654 556.382 370.157 554.837 462.529L543.134 461.257Z" fill="#DBDBDB"/>
<path id="Vector_22" d="M572.645 464.455C574.178 372.009 575.686 279.413 577.168 186.667C581.05 187.003 584.932 187.321 588.814 187.62C587.345 280.553 585.85 373.243 584.329 465.69C580.428 465.297 576.546 464.886 572.645 464.455Z" fill="#DBDBDB"/>
<path id="Vector_23" d="M602.119 467.503C603.626 374.894 605.09 282.024 606.51 188.891C610.373 189.153 614.255 189.378 618.099 189.583C616.73 282.94 615.291 375.941 613.784 468.587L602.119 467.503Z" fill="#DBDBDB"/>
<path id="Vector_24" d="M631.537 470.158C632.994 377.262 634.395 284.011 635.739 190.406C639.584 190.555 643.428 190.667 647.273 190.742C646.016 284.647 644.647 378.091 643.164 471.074L631.537 470.158Z" fill="#DBDBDB"/>
<path id="Vector_25" d="M660.841 472.234C662.235 378.927 663.555 285.165 664.798 190.948C668.567 190.948 672.387 190.911 676.256 190.836C675.088 285.402 673.831 379.4 672.487 472.832C668.593 472.67 664.71 472.47 660.841 472.234Z" fill="#DBDBDB"/>
<path id="Vector_26" d="M690.032 473.412C691.288 379.581 692.501 285.178 693.669 190.2C697.438 190.013 701.207 189.808 704.976 189.546C703.921 284.91 702.753 379.6 701.471 473.617C697.702 473.63 693.889 473.561 690.032 473.412Z" fill="#DBDBDB"/>
<path id="Vector_27" d="M745.607 152.804H308.853V490.41H745.607V152.804Z" fill="#EBEBEB"/>
<path id="Vector_28" d="M745.625 152.804L746.209 490.447V491.045H745.625L308.852 491.363H307.928V490.447L308.154 152.86V152.149H308.852L745.625 152.804ZM745.625 152.804L308.852 153.495L309.568 152.804L309.7 490.447L308.776 489.531L745.549 489.867L745.022 490.447L745.625 152.804Z" fill="#DBDBDB"/>
<path id="Vector_29" d="M402.191 462.605L401.871 330.741L402.191 198.878L402.53 330.741L402.191 462.605Z" fill="#C7C7C7"/>
<path id="Vector_30" d="M413.046 462.605L412.707 330.741L413.046 198.878L413.367 330.741L413.046 462.605Z" fill="#C7C7C7"/>
<path id="Vector_31" d="M423.883 462.605L423.543 330.741L423.883 198.878L424.222 330.741L423.883 462.605Z" fill="#C7C7C7"/>
<path id="Vector_32" d="M434.719 443.962L434.38 312.098L434.719 180.234L435.058 312.098L434.719 443.962Z" fill="#C7C7C7"/>
<path id="Vector_33" d="M445.554 443.962L445.215 312.098L445.554 180.234L445.893 312.098L445.554 443.962Z" fill="#C7C7C7"/>
<path id="Vector_34" d="M456.389 443.962L456.069 312.098L456.389 180.234L456.728 312.098L456.389 443.962Z" fill="#C7C7C7"/>
<path id="Vector_35" d="M467.244 443.962L466.905 312.098L467.244 180.234L467.565 312.098L467.244 443.962Z" fill="#C7C7C7"/>
<path id="Vector_36" d="M478.081 443.962L477.742 312.098L478.081 180.234L478.401 312.098L478.081 443.962Z" fill="#C7C7C7"/>
<path id="Vector_37" d="M488.917 443.962L488.578 312.098L488.917 180.234L489.256 312.098L488.917 443.962Z" fill="#C7C7C7"/>
<path id="Vector_38" d="M499.752 443.962L499.413 312.098L499.752 180.234L500.091 312.098L499.752 443.962Z" fill="#C7C7C7"/>
<path id="Vector_39" d="M510.588 443.962L510.249 312.098L510.588 180.234L510.928 312.098L510.588 443.962Z" fill="#C7C7C7"/>
<path id="Vector_40" d="M521.425 443.962L521.105 312.098L521.425 180.234L521.764 312.098L521.425 443.962Z" fill="#C7C7C7"/>
<path id="Vector_41" d="M532.279 443.962L531.94 312.098L532.279 180.234L532.599 312.098L532.279 443.962Z" fill="#C7C7C7"/>
<path id="Vector_42" d="M543.115 443.962L542.776 312.098L543.115 180.234L543.455 312.098L543.115 443.962Z" fill="#C7C7C7"/>
<path id="Vector_43" d="M553.952 443.962L553.612 312.098L553.952 180.234L554.291 312.098L553.952 443.962Z" fill="#C7C7C7"/>
<path id="Vector_44" d="M521.085 414.698V434.705H566.577V414.698H521.085Z" fill="#4498F6"/>
<path id="Vector_45" d="M496.832 377.599V397.607H566.578V377.599H496.832Z" fill="#4498F6"/>
<path id="Vector_46" d="M469.658 340.519V360.527H566.578V340.519H469.658Z" fill="#4498F6"/>
<path id="Vector_47" d="M457.992 303.402V323.41H566.577V303.402H457.992Z" fill="#4498F6"/>
<path id="Vector_48" d="M437.224 266.305V286.313H566.596V266.305H437.224Z" fill="#4498F6"/>
<path id="Vector_49" d="M416.664 229.206V249.214H566.577V229.206H416.664Z" fill="#4498F6"/>
<path id="Vector_50" d="M394.597 436.819L437.583 436.295L480.587 435.94C509.251 435.697 537.914 435.622 566.577 435.566L565.334 436.819V372.663L565.484 308.527L565.899 244.371L566.634 180.234L567.388 244.371L567.784 308.527L567.934 372.663V436.819V438.053H566.691C538.027 438.053 509.364 437.922 480.7 437.679L437.696 437.324L394.597 436.819Z" fill="#C7C7C7"/>
<path id="Vector_51" d="M575.68 414.717V434.724H577.508V414.717H575.68Z" fill="#C7C7C7"/>
<path id="Vector_52" d="M575.662 377.618V397.626H577.49V377.618H575.662Z" fill="#C7C7C7"/>
<path id="Vector_53" d="M575.662 340.519V360.527H577.49V340.519H575.662Z" fill="#C7C7C7"/>
<path id="Vector_54" d="M575.662 303.402V323.41H577.49V303.402H575.662Z" fill="#C7C7C7"/>
<path id="Vector_55" d="M575.68 266.305V286.313H577.508V266.305H575.68Z" fill="#C7C7C7"/>
<path id="Vector_56" d="M575.68 229.206V249.214H577.508V229.206H575.68Z" fill="#C7C7C7"/>
<path id="Vector_57" d="M526.833 432.462C526.662 422.689 525.894 412.936 524.534 403.255C523.306 393.578 521.564 383.972 519.314 374.477C515.003 355.464 508.456 337.02 499.809 319.522C491.315 301.971 480.232 285.774 466.925 271.466L464.456 268.773L461.837 266.212L456.579 261.107C452.81 257.965 449.286 254.581 445.272 251.757C437.524 245.711 429.335 240.242 420.773 235.396L420.867 235.228C447.546 248.568 470.391 268.386 487.277 292.839C492.944 300.931 497.984 309.439 502.354 318.288C511.008 336.014 517.414 354.737 521.425 374.029C525.619 393.215 527.435 412.838 526.833 432.462Z" fill="#263238"/>
<path id="Vector_58" d="M434.907 229.711L435.605 232.479L421.848 235.882L426.276 249.251L423.525 250.13L418.154 233.844L434.907 229.711Z" fill="#263238"/>
<path id="Vector_59" d="M645.425 449.608V174.587H634.213V449.608H645.425Z" fill="#DBDBDB"/>
<path id="Vector_60" d="M673.731 468.233V313.407H662.518V468.233H673.731Z" fill="#DBDBDB"/>
<path id="Vector_61" d="M368.345 408.153V253.327H357.132V408.153H368.345Z" fill="#DBDBDB"/>
<path id="Vector_62" d="M473.712 482.795L473.811 295.097L462.598 295.091L462.499 482.789L473.712 482.795Z" fill="white"/>
<path id="Vector_63" d="M502.023 482.795L502.122 295.097L490.909 295.091L490.81 482.789L502.023 482.795Z" fill="white"/>
<path id="Vector_64" d="M530.332 482.814L530.431 295.116L519.218 295.11L519.119 482.808L530.332 482.814Z" fill="white"/>
<path id="Vector_65" d="M760.72 530.816H294.115L258.121 223.054H718.062C721.861 223.054 725.058 225.898 725.5 229.672L760.72 530.816Z" fill="#4498F6"/>
<path id="Vector_66" d="M421.18 195.815C420.021 193.016 417.29 191.191 414.261 191.191H262.819C258.341 191.191 254.863 195.097 255.382 199.546L258.121 223.054H432.457L421.18 195.815Z" fill="#4498F6"/>
</g>
<g id="freepik--character-1--inject-5">
<path id="Vector_67" d="M346.185 602.229C341.926 603.594 220.319 602.528 215.702 599.592C213.949 598.471 213.082 580.894 212.63 559.615C212.536 555.033 212.461 550.265 212.404 545.46L203.339 480.986L284.637 481.472L291.516 545.927L291.026 560.082C291.026 560.082 337.404 581.155 342.115 584.914C346.826 588.672 350.52 600.92 346.185 602.229Z" fill="#F7D5CE"/>
<path id="Vector_68" d="M346.185 602.229C341.926 603.594 220.319 602.528 215.702 599.592C213.572 598.227 212.724 572.554 212.404 545.366L291.553 545.833L291.064 559.988C291.064 559.988 337.441 581.062 342.153 584.82C346.864 588.579 350.52 600.92 346.185 602.229Z" fill="white"/>
<path id="Vector_69" d="M346.185 602.229C341.926 603.594 220.318 602.528 215.701 599.592C213.949 598.47 213.082 580.893 212.63 559.614L291.025 560.082C291.025 560.082 337.403 581.155 342.114 584.914C346.826 588.672 350.519 600.92 346.185 602.229Z" fill="#4498F6"/>
<path id="Vector_70" d="M344.488 597.387C324.098 596.713 241.839 595.89 221.637 596.769C221.486 596.769 221.486 596.882 221.637 596.882C241.82 598.005 324.098 598.155 344.488 597.705C344.865 597.705 344.865 597.387 344.488 597.387Z" fill="#263238"/>
<path id="Vector_71" d="M334.332 580.52C332.065 580.436 329.804 580.822 327.695 581.652C325.587 582.483 323.675 583.74 322.083 585.344C319.205 588.206 317.546 592.055 317.447 596.096C317.447 596.227 317.673 596.227 317.692 596.096C318.408 592.093 320.42 588.43 323.423 585.663C326.426 582.897 330.256 581.176 334.332 580.763C334.357 580.753 334.378 580.737 334.392 580.715C334.407 580.693 334.415 580.668 334.415 580.642C334.415 580.615 334.407 580.59 334.392 580.568C334.378 580.547 334.357 580.53 334.332 580.52Z" fill="#263238"/>
<path id="Vector_72" d="M298.921 562.157C290.761 561.97 281.282 564.756 276.138 571.32C275.949 571.581 276.307 571.862 276.552 571.731C283.727 568.091 291.269 565.214 299.053 563.148C299.171 563.116 299.273 563.042 299.341 562.94C299.408 562.839 299.437 562.717 299.421 562.596C299.405 562.475 299.345 562.365 299.254 562.284C299.162 562.204 299.044 562.158 298.921 562.157Z" fill="#263238"/>
<path id="Vector_73" d="M305.291 564.644C297.131 564.457 287.652 567.243 282.526 573.825C282.319 574.069 282.677 574.349 282.922 574.237C290.047 570.589 297.546 567.712 305.291 565.654C305.402 565.624 305.501 565.558 305.571 565.467C305.641 565.375 305.679 565.264 305.679 565.149C305.679 565.034 305.641 564.923 305.571 564.832C305.501 564.741 305.402 564.675 305.291 564.644Z" fill="#263238"/>
<path id="Vector_74" d="M311.472 567.15C303.312 566.963 293.833 569.731 288.707 576.313C288.499 576.556 288.876 576.836 289.103 576.724C296.27 573.068 303.814 570.19 311.604 568.141C311.722 568.109 311.824 568.035 311.891 567.933C311.959 567.832 311.987 567.71 311.971 567.589C311.955 567.469 311.896 567.358 311.804 567.277C311.712 567.197 311.594 567.152 311.472 567.15Z" fill="#263238"/>
<path id="Vector_75" d="M317.748 569.637C309.588 569.45 300.109 572.218 294.983 578.8C294.776 579.061 295.153 579.342 295.398 579.211C302.564 575.568 310.1 572.69 317.88 570.628C317.998 570.596 318.1 570.522 318.167 570.42C318.235 570.319 318.263 570.197 318.247 570.076C318.231 569.956 318.172 569.845 318.08 569.764C317.988 569.684 317.87 569.639 317.748 569.637Z" fill="#263238"/>
<path id="Vector_76" d="M227.008 577.603C217.85 577.603 217.755 591.664 226.914 591.72C236.073 591.776 236.167 577.659 227.008 577.603Z" fill="#263238"/>
<path id="Vector_77" d="M307.929 540.634C303.821 537.194 298.507 540.466 296.019 543.981C291.734 550.064 289.134 557.157 288.481 564.55C288.478 564.582 288.482 564.614 288.493 564.644C288.505 564.675 288.523 564.702 288.547 564.724C288.57 564.745 288.599 564.761 288.63 564.77C288.662 564.779 288.694 564.78 288.726 564.774C288.757 564.928 288.823 565.073 288.921 565.196C289.019 565.319 289.144 565.418 289.288 565.484C289.431 565.549 289.588 565.58 289.746 565.574C289.904 565.568 290.058 565.524 290.196 565.448C296.038 561.502 302.766 557.968 307.157 552.358C309.776 549.217 311.811 543.888 307.929 540.634ZM297.753 557.744C294.926 559.763 292.099 561.614 289.254 563.727C290.618 559.661 292.19 555.667 293.965 551.76C294.846 549.884 295.86 548.072 296.999 546.337C298.789 543.663 306.855 536.988 307.59 545.795C308.005 550.657 301.126 555.369 297.753 557.744Z" fill="#263238"/>
<path id="Vector_78" d="M268.129 567.449C275.214 568.59 282.564 566.645 289.555 565.58C289.706 565.54 289.846 565.466 289.963 565.365C290.081 565.263 290.173 565.136 290.233 564.993C290.293 564.85 290.319 564.696 290.31 564.541C290.3 564.387 290.255 564.237 290.177 564.102C290.205 564.083 290.227 564.058 290.242 564.029C290.257 564 290.265 563.967 290.265 563.934C290.265 563.901 290.257 563.869 290.242 563.839C290.227 563.81 290.205 563.785 290.177 563.766C284.644 558.732 277.871 555.236 270.541 553.631C266.244 552.771 260.157 553.874 259.479 559.147C258.8 564.42 263.983 566.776 268.129 567.449ZM263.229 562.793C257.783 555.8 268.279 555.314 271.426 556.081C273.447 556.612 275.43 557.274 277.363 558.063C281.396 559.652 285.127 561.802 288.952 563.672C285.504 563.971 282.093 564.551 278.644 564.963C274.517 565.505 266.244 566.645 263.229 562.793Z" fill="#263238"/>
<path id="Vector_79" d="M87.5924 182.068C87.5924 182.068 179.933 342.578 182.402 353.797C186.171 371.037 204.545 541.065 204.545 541.065L295.51 540.504C295.51 540.504 280.434 390.615 265.019 341.101C256.614 314.081 212.253 240.8 191.523 204.6C189.639 201.365 190.204 186.574 190.204 186.574L87.5924 182.068Z" fill="#8499A4"/>
<path id="Vector_80" d="M286.767 525.434C272.67 525.172 229.967 523.993 211.179 525.434C211.028 525.434 211.028 525.677 211.179 525.696C217.624 526.707 272.67 526.033 286.767 525.696C286.793 525.723 286.826 525.741 286.863 525.748C286.9 525.756 286.938 525.752 286.972 525.738C287.007 525.724 287.037 525.7 287.058 525.669C287.078 525.639 287.09 525.602 287.09 525.565C287.09 525.528 287.078 525.492 287.058 525.461C287.037 525.43 287.007 525.406 286.972 525.392C286.938 525.378 286.9 525.374 286.863 525.382C286.826 525.389 286.793 525.407 286.767 525.434Z" fill="#263238"/>
<path id="Vector_81" d="M103.517 196.878C109.585 206.582 115.992 216.081 122.192 225.711C128.392 235.341 134.592 244.971 140.698 254.657C152.897 274.029 164.832 293.569 176.504 313.277C182.152 322.357 186.958 331.926 190.864 341.868C194.437 351.836 197.086 362.107 198.779 372.552C200.569 383.024 201.718 393.607 202.774 404.172C203.904 415.391 205.029 426.648 206.147 437.942C208.459 460.979 210.764 484.041 213.063 507.127C213.346 509.951 213.629 512.737 213.873 515.617C213.873 516.028 213.157 516.103 213.12 515.617C210.5 492.711 208.39 469.767 206.053 446.843L202.548 412.605C201.473 402.003 200.437 391.382 198.91 380.817C197.466 370.405 195.229 360.116 192.22 350.039C188.955 339.612 184.531 329.577 179.029 320.121C167.891 300.506 156.094 281.209 144.279 261.949C132.463 242.689 120.345 223.187 107.87 204.114C106.325 201.758 104.779 199.421 103.177 197.102C103.083 196.859 103.404 196.691 103.517 196.878Z" fill="#263238"/>
<path id="Vector_82" d="M124.171 608.774C119.686 608.4 4.63635 560.55 1.47038 556.044C1.33224 555.786 1.27328 555.493 1.30078 555.202C1.30078 551.257 9.55493 537.532 16.3769 519.506C16.8103 518.347 19.8632 513.018 24.0845 505.8C35.7119 486.035 56.2908 452.153 56.2908 452.153L131.502 482.875L94.6594 536.167L88.874 549.106C88.874 549.106 123.888 585.906 126.809 591.16C129.73 596.414 128.618 609.073 124.171 608.774Z" fill="#F7D5CE"/>
<path id="Vector_83" d="M124.171 608.773C119.686 608.399 4.63635 560.549 1.47038 556.042C1.33224 555.784 1.27328 555.492 1.30078 555.201C1.30078 551.256 9.55493 537.531 16.3769 519.505C16.8103 518.346 19.8632 513.017 24.0845 505.799L94.6594 536.166L88.874 549.105C88.874 549.105 123.888 585.904 126.809 591.159C129.73 596.413 128.618 609.072 124.171 608.773Z" fill="white"/>
<path id="Vector_84" d="M124.152 608.773C119.686 608.455 4.61748 560.549 1.47035 556.098C0.264263 554.416 5.61627 538.802 16.5464 519.561L89.0435 549.161C89.0435 549.161 124.077 585.96 127.016 591.215C129.956 596.469 128.618 609.072 124.152 608.773Z" fill="#4498F6"/>
<path id="Vector_85" d="M124.379 603.649C105.741 595.441 29.7764 564.064 10.7429 557.351C10.5733 557.351 10.5356 557.351 10.7429 557.464C29.0415 566.009 105.232 596.731 124.303 603.949C124.68 604.098 124.793 603.818 124.379 603.649Z" fill="#263238"/>
<path id="Vector_86" d="M121.363 584.222C119.284 583.317 117.038 582.849 114.767 582.849C112.497 582.849 110.251 583.317 108.171 584.222C104.419 585.804 101.424 588.756 99.8042 592.468C99.8042 592.58 99.955 592.674 100.03 592.562C102.207 589.117 105.457 586.471 109.286 585.024C113.115 583.576 117.315 583.406 121.25 584.54C121.292 584.555 121.339 584.552 121.38 584.533C121.42 584.514 121.452 584.479 121.467 584.437C121.482 584.395 121.479 584.349 121.46 584.308C121.44 584.268 121.405 584.237 121.363 584.222Z" fill="#263238"/>
<path id="Vector_87" d="M95.4879 554.042C87.9499 550.825 78.1504 549.872 70.9893 554.042C70.7066 554.21 70.9893 554.603 71.2154 554.565C79.236 553.857 87.3098 554.001 95.2995 554.995C95.41 554.986 95.5145 554.942 95.5971 554.868C95.6798 554.795 95.7361 554.697 95.7574 554.589C95.7787 554.481 95.764 554.369 95.7153 554.27C95.6667 554.172 95.5868 554.091 95.4879 554.042Z" fill="#263238"/>
<path id="Vector_88" d="M100.37 558.679C92.8315 555.482 83.032 554.51 75.8709 558.679C75.5882 558.848 75.8709 559.24 76.097 559.222C84.1166 558.498 92.1914 558.636 100.181 559.633C100.292 559.624 100.396 559.58 100.479 559.506C100.561 559.433 100.618 559.335 100.639 559.227C100.66 559.119 100.646 559.007 100.597 558.908C100.548 558.809 100.468 558.729 100.37 558.679Z" fill="#263238"/>
<path id="Vector_89" d="M105.232 563.335C97.6939 560.119 87.9133 559.166 80.7333 563.335C80.4506 563.485 80.7333 563.878 80.9594 563.859C88.9863 563.151 97.0663 563.296 105.062 564.289C105.171 564.277 105.274 564.23 105.354 564.155C105.434 564.081 105.487 563.982 105.506 563.875C105.525 563.768 105.509 563.657 105.459 563.56C105.41 563.463 105.33 563.384 105.232 563.335Z" fill="#263238"/>
<path id="Vector_90" d="M110.112 567.973C102.574 564.775 92.7749 563.803 85.6138 567.973C85.3311 568.141 85.6138 568.534 85.8399 568.515C93.8658 567.792 101.947 567.93 109.943 568.927C110.052 568.914 110.154 568.867 110.234 568.793C110.314 568.718 110.368 568.62 110.387 568.513C110.406 568.405 110.389 568.295 110.34 568.198C110.291 568.1 110.211 568.021 110.112 567.973Z" fill="#263238"/>
<path id="Vector_91" d="M22.9911 541.571C14.5297 538.13 9.1023 551.163 17.5638 554.66C26.0252 558.157 31.4714 545.049 22.9911 541.571Z" fill="#263238"/>
<path id="Vector_92" d="M111.977 537.437C109.471 532.725 103.384 533.81 99.6717 536.11C93.362 540.154 88.2396 545.778 84.8217 552.415C84.8063 552.444 84.7981 552.476 84.7977 552.509C84.7974 552.541 84.8049 552.574 84.8196 552.603C84.8344 552.632 84.8559 552.658 84.8825 552.677C84.9091 552.696 84.9399 552.709 84.9725 552.714C84.9409 552.866 84.9466 553.024 84.9891 553.174C85.0316 553.323 85.1096 553.461 85.2167 553.574C85.3237 553.688 85.4567 553.774 85.6044 553.826C85.7521 553.878 85.9102 553.895 86.0655 553.873C92.9816 552.415 100.539 551.686 106.795 548.152C110.432 546.095 114.333 541.887 111.977 537.437ZM96.1099 549.517C92.7367 550.321 89.3445 550.956 85.9901 551.891C88.8923 548.731 91.6436 545.44 94.8661 542.542C96.4008 541.137 98.0249 539.832 99.7282 538.634C102.404 536.764 112.411 533.641 109.773 542.074C108.265 546.693 100.105 548.563 96.1099 549.517Z" fill="#263238"/>
<path id="Vector_93" d="M64.9405 547.479C71.084 551.219 78.622 552.098 85.4817 553.762C86.1978 553.949 86.6689 553.238 86.6312 552.64C86.6643 552.632 86.6953 552.617 86.7217 552.596C86.7481 552.574 86.7694 552.548 86.7839 552.517C86.7984 552.486 86.8057 552.453 86.8054 552.419C86.8051 552.386 86.7971 552.352 86.782 552.322C83.5395 545.601 78.5746 539.843 72.3843 535.624C68.7472 533.231 62.6791 531.978 60.0596 536.615C57.4401 541.252 61.3599 545.31 64.9405 547.479ZM62.1891 541.346C59.7769 532.819 69.7272 536.297 72.3089 538.167C73.9768 539.412 75.563 540.761 77.0579 542.206C80.205 545.179 82.8622 548.545 85.6701 551.78C82.3534 550.77 78.9801 550.041 75.6257 549.143C71.6117 548.059 63.5083 546.039 62.1891 541.346Z" fill="#263238"/>
<path id="Vector_94" d="M100.615 533.286L16.4341 498.357C16.4341 498.357 123.229 346.598 124.153 335.229C124.963 325.15 79.9798 236.78 78.491 211.163C76.8703 183.526 90.533 162.322 105.421 149.232L190.224 186.63C190.224 186.63 182.818 201.589 168.213 209.629C168.213 209.629 211.707 311.65 208.767 342.839C205.827 374.029 100.615 533.286 100.615 533.286Z" fill="#8499A4"/>
<path id="Vector_95" d="M104.572 517.374C92.4169 512.007 95.9786 513.372 83.7482 508.137C77.7554 505.575 38.5199 488.784 32.4141 487.362C32.2822 487.362 32.188 487.549 32.4141 487.624C37.6342 490.878 77.2654 506.996 83.2959 509.427C95.6206 514.438 92.1343 512.868 104.515 517.729C104.556 517.724 104.594 517.706 104.624 517.678C104.653 517.65 104.673 517.613 104.679 517.573C104.685 517.533 104.678 517.491 104.659 517.456C104.64 517.42 104.609 517.391 104.572 517.374Z" fill="#263238"/>
<path id="Vector_96" d="M182.629 207.91C173.512 209.885 164.584 212.638 155.944 216.137C155.887 216.169 155.843 216.219 155.819 216.279C155.795 216.34 155.793 216.406 155.813 216.468C155.833 216.53 155.874 216.582 155.929 216.618C155.984 216.653 156.049 216.668 156.114 216.661C165.066 214.174 174.187 211.874 182.968 208.938C183.097 208.887 183.201 208.789 183.26 208.664C183.318 208.539 183.327 208.397 183.283 208.267C183.24 208.136 183.149 208.026 183.027 207.96C182.906 207.894 182.763 207.876 182.629 207.91Z" fill="#263238"/>
<path id="Vector_97" d="M172.32 204.208C171.46 205.699 170.692 207.242 170.021 208.826C169.377 210.028 168.974 211.343 168.833 212.697C168.842 212.751 168.865 212.802 168.901 212.844C168.937 212.886 168.983 212.918 169.036 212.935C169.089 212.952 169.145 212.955 169.199 212.943C169.253 212.93 169.303 212.904 169.342 212.865C170.27 211.775 171.026 210.552 171.585 209.238C172.339 207.816 173.13 206.395 173.846 204.956C174.336 204.002 172.866 203.291 172.32 204.208Z" fill="#263238"/>
<path id="Vector_98" d="M173.489 196.091C174.036 194.764 174.582 193.436 175.166 192.127C175.751 190.818 176.467 189.416 177.051 188.014C177.051 187.789 177.484 188.014 177.39 188.182C176.844 189.51 176.485 190.912 176.033 192.296C175.581 193.679 175.11 195.026 174.639 196.391C173.753 198.934 172.754 201.439 171.548 203.87C172.982 203.956 174.417 203.727 175.751 203.197C177.091 202.377 178.139 201.16 178.747 199.719C179.538 198.223 180.255 196.709 181.065 195.25C182.04 193.661 182.872 191.991 183.552 190.257C183.552 190.033 183.967 190.257 183.892 190.407C182.663 194.099 181.059 197.658 179.105 201.028C178.295 202.337 177.616 203.702 176.127 204.207C174.506 204.639 172.811 204.729 171.152 204.468C170.945 204.468 170.681 204.469 170.757 204.151C171.527 201.419 172.439 198.729 173.489 196.091Z" fill="#263238"/>
<path id="Vector_99" d="M169.606 212.903C172.621 219.466 175.26 225.992 178.086 232.536C180.913 239.081 183.42 245.382 185.907 251.871C190.933 264.997 195.424 278.311 199.381 291.811C201.316 298.481 203.088 305.2 204.696 311.969C206.439 318.728 207.698 325.601 208.465 332.537C209.141 339.458 208.456 346.444 206.448 353.106C204.372 359.694 201.717 366.088 198.515 372.216C196.63 376.087 195.933 375.563 196.875 373.6C199.551 367.99 206.58 351.161 206.298 336.913C205.965 330.04 204.968 323.215 203.32 316.531C201.812 309.687 200.079 302.9 198.194 296.149C194.425 282.855 190.034 269.803 185.474 256.789C182.911 249.496 180.141 242.26 177.54 234.986C174.939 227.712 172.207 221.037 169.286 213.033C169.286 212.997 169.298 212.961 169.318 212.931C169.339 212.901 169.368 212.877 169.402 212.863C169.437 212.849 169.474 212.846 169.51 212.853C169.546 212.86 169.58 212.877 169.606 212.903Z" fill="#263238"/>
<path id="Vector_100" d="M105.534 190.576C107.06 190.034 109.152 190.969 110.697 191.249C112.671 191.604 114.667 191.829 116.671 191.923C118.657 192.01 120.646 191.966 122.626 191.792C124.596 191.76 126.532 191.274 128.28 190.371C131.181 188.351 133.68 185.815 135.648 182.891C137.991 179.884 139.936 176.591 141.434 173.093C141.434 172.887 141.81 173.093 141.735 173.242C141.075 175.243 140.585 177.263 139.737 179.226C138.936 181.064 137.984 182.834 136.892 184.518C135.088 187.907 132.458 190.793 129.241 192.914C125.717 194.783 121.194 194.671 117.274 194.409C115.011 194.244 112.763 193.919 110.546 193.437C108.945 193.082 106.269 192.783 105.251 191.38C105.192 191.316 105.152 191.236 105.135 191.151C105.118 191.066 105.124 190.978 105.153 190.895C105.182 190.813 105.232 190.74 105.299 190.684C105.366 190.628 105.447 190.591 105.534 190.576Z" fill="#263238"/>
<path id="Vector_101" d="M40.7812 482.651C54.9527 461.945 68.8667 441.071 82.5231 420.028C96.1795 398.986 109.66 377.744 122.965 356.303C126.131 351.198 129.787 346.094 131.86 340.428C134.121 334.239 132.953 328.236 131.068 322.14C127.497 311 123.294 300.069 118.48 289.399C113.731 278.666 108.605 268.12 103.573 257.611C98.2652 247.192 93.565 236.478 89.4958 225.524C85.9152 214.997 84.6337 204.095 87.6112 193.269C90.5888 182.442 96.8265 172.887 103.328 163.93C105.043 161.556 106.777 159.218 108.492 156.862C108.624 156.675 108.906 156.862 108.774 157.068C101.613 166.417 94.6216 176.309 90.3626 187.341C88.1645 192.767 86.8907 198.517 86.5936 204.357C86.4852 210.289 87.3444 216.199 89.1377 221.859C92.4168 232.873 97.6934 243.344 102.593 253.647C107.493 263.95 112.769 274.795 117.669 285.435C122.6 296.16 126.966 307.132 130.748 318.307C132.406 323.3 134.253 328.535 134.064 333.846C133.876 339.68 130.993 344.897 128.034 349.777C115.106 371.038 101.651 392.018 88.1578 412.885C74.6647 433.753 60.6816 454.584 46.6985 475.208L41.2523 483.118C41.045 483.361 40.5739 482.968 40.7812 482.651Z" fill="#263238"/>
<path id="Vector_102" d="M226.745 11.479C221.091 2.78409 209.935 -0.394715 198.722 0.671114C187.509 1.73694 173.828 6.00026 170.586 24.699C167.967 39.8824 170.982 55.2902 169.079 72.3435C167.175 89.3967 144.052 128.907 171.905 152.468C196.913 173.653 253.373 162.939 259.064 125.635C263.568 96.0535 232.266 64.8079 229.911 52.7098C227.555 40.6117 233.058 21.0154 226.745 11.479Z" fill="#263238"/>
<path id="Vector_103" d="M229.911 28.738C228.988 37.3536 229.717 46.0648 232.059 54.4114C232.693 56.5638 233.619 58.6208 234.811 60.5259C235.96 62.3957 237.204 64.1534 238.429 65.9111C240.935 69.4078 243.404 72.8857 245.703 76.4572C250.415 83.5145 254.089 91.2022 256.615 99.2884C259.026 107.462 259.908 116.005 259.215 124.494C260.02 120.261 260.355 115.954 260.214 111.648C260.02 107.321 259.389 103.023 258.329 98.8209C256.113 90.4156 252.516 82.4302 247.682 75.1857C245.326 71.5581 242.782 68.0614 240.257 64.6022C237.59 61.3538 235.401 57.7464 233.755 53.8878C232.332 49.9079 231.371 45.78 230.891 41.584C230.305 37.3253 229.978 33.0356 229.911 28.738Z" fill="#263238"/>
<path id="Vector_104" d="M170.002 37.6201C169.267 46.3337 168.871 55.0473 167.722 63.63C167.167 67.9113 166.362 72.1568 165.31 76.3452C164.235 80.4402 162.577 84.4978 161.107 88.6116C159.637 92.7253 158.28 96.9138 157.131 101.177C156.027 105.471 155.289 109.85 154.926 114.266C154.638 118.697 154.968 123.145 155.906 127.486C157.04 131.755 159.026 135.755 161.748 139.248C159.451 135.568 157.86 131.498 157.055 127.243C156.363 123.008 156.262 118.698 156.754 114.435C157.995 105.885 160.214 97.5038 163.369 89.453C164.782 85.3393 166.44 81.2817 167.496 76.9248C168.507 72.6186 169.194 68.2434 169.55 63.8357C170.218 55.1135 170.369 46.3598 170.002 37.6201Z" fill="#263238"/>
<path id="Vector_105" d="M183.589 81.6922C181.008 96.3146 182.572 159.591 189.997 179.786C198.665 203.328 218.057 244.783 224.822 244.745C231.268 244.745 266.395 224.364 262.513 218.698C258.631 213.032 231.795 170.848 228.026 163.069C225.765 158.451 211.895 111.965 203.188 88.7043C195.273 67.6495 187.151 61.5724 183.589 81.6922Z" fill="#F7D5CE"/>
<path id="Vector_106" d="M181.178 122.455L222.204 126.606C222.204 126.606 205.413 84.8334 196.895 73.9321C187.472 61.6657 183.138 69.1639 181.102 83.7489C179.067 98.3339 181.178 122.455 181.178 122.455Z" fill="#4498F6"/>
<path id="Vector_107" d="M191.882 80.552C191.885 80.9596 191.767 81.3591 191.541 81.6998C191.316 82.0405 190.994 82.307 190.615 82.4656C190.237 82.6241 189.819 82.6676 189.416 82.5903C189.013 82.5131 188.641 82.3187 188.35 82.0318C188.058 81.7449 187.859 81.3784 187.777 80.9789C187.695 80.5794 187.735 80.1649 187.892 79.788C188.048 79.411 188.314 79.0887 188.655 78.8619C188.996 78.635 189.398 78.5139 189.809 78.5139C190.355 78.5138 190.88 78.728 191.268 79.1097C191.656 79.4914 191.877 80.0098 191.882 80.552ZM189.809 104.412C189.399 104.412 188.998 104.532 188.657 104.758C188.316 104.984 188.05 105.306 187.893 105.681C187.737 106.057 187.696 106.471 187.776 106.87C187.855 107.269 188.053 107.635 188.343 107.923C188.633 108.211 189.002 108.406 189.404 108.486C189.806 108.565 190.223 108.524 190.602 108.369C190.981 108.213 191.304 107.949 191.532 107.611C191.76 107.273 191.882 106.875 191.882 106.469C191.884 106.198 191.832 105.929 191.729 105.678C191.626 105.428 191.473 105.2 191.28 105.008C191.087 104.817 190.858 104.666 190.605 104.563C190.352 104.461 190.082 104.409 189.809 104.412ZM207.843 104.412C207.433 104.412 207.033 104.532 206.692 104.758C206.351 104.984 206.085 105.306 205.928 105.681C205.771 106.057 205.73 106.471 205.81 106.87C205.89 107.269 206.088 107.635 206.378 107.923C206.667 108.211 207.037 108.406 207.439 108.486C207.841 108.565 208.258 108.524 208.637 108.369C209.015 108.213 209.339 107.949 209.567 107.611C209.795 107.273 209.916 106.875 209.916 106.469C209.916 105.923 209.698 105.4 209.309 105.014C208.92 104.628 208.393 104.412 207.843 104.412ZM180.801 91.4908H180.405C180.405 92.7997 180.292 94.146 180.254 95.4923C180.435 95.521 180.62 95.521 180.801 95.4923C181.35 95.4923 181.878 95.2756 182.266 94.8899C182.655 94.5042 182.874 93.981 182.874 93.4355C182.874 92.89 182.655 92.3668 182.266 91.9811C181.878 91.5953 181.35 91.3786 180.801 91.3786V91.4908ZM198.835 91.4908C198.425 91.4871 198.022 91.6046 197.679 91.8283C197.335 92.0521 197.067 92.372 196.907 92.7475C196.747 93.123 196.703 93.5371 196.781 93.9374C196.859 94.3376 197.055 94.7058 197.344 94.9953C197.633 95.2849 198.003 95.4826 198.405 95.5635C198.808 95.6444 199.226 95.6048 199.605 95.4497C199.985 95.2945 200.31 95.031 200.539 94.6923C200.767 94.3537 200.89 93.9553 200.89 93.5477C200.89 93.0054 200.674 92.485 200.289 92.0998C199.904 91.7146 199.382 91.4957 198.835 91.4908ZM180.914 117.407C181.027 119.277 181.121 120.623 181.196 121.484C181.696 121.391 182.144 121.119 182.455 120.721C182.766 120.322 182.918 119.824 182.883 119.321C182.848 118.818 182.629 118.345 182.265 117.992C181.902 117.639 181.421 117.431 180.914 117.407ZM198.93 117.407C198.518 117.404 198.115 117.522 197.771 117.746C197.427 117.971 197.159 118.292 196.999 118.668C196.84 119.045 196.797 119.46 196.877 119.861C196.956 120.261 197.154 120.63 197.445 120.918C197.736 121.207 198.107 121.404 198.511 121.482C198.915 121.561 199.333 121.519 199.713 121.361C200.092 121.203 200.416 120.936 200.642 120.595C200.869 120.254 200.987 119.854 200.984 119.445C200.984 119.17 200.928 118.897 200.819 118.643C200.71 118.39 200.55 118.161 200.349 117.97C200.148 117.78 199.911 117.631 199.65 117.535C199.39 117.438 199.113 117.395 198.835 117.407H198.93ZM216.946 117.407C216.535 117.407 216.133 117.528 215.792 117.755C215.451 117.982 215.185 118.304 215.029 118.681C214.872 119.058 214.832 119.473 214.914 119.872C214.995 120.272 215.195 120.638 215.487 120.925C215.778 121.212 216.149 121.406 216.553 121.484C216.956 121.561 217.374 121.518 217.752 121.359C218.13 121.2 218.453 120.934 218.678 120.593C218.904 120.252 219.022 119.853 219.019 119.445C219.019 119.168 218.962 118.894 218.852 118.639C218.742 118.384 218.58 118.154 218.377 117.963C218.175 117.772 217.935 117.625 217.672 117.529C217.41 117.433 217.13 117.392 216.851 117.407H216.946Z" fill="white"/>
<path id="Vector_108" d="M217.172 118.791C215.777 118.436 203.019 116.921 200.211 116.678C197.403 116.435 186.077 115.22 183.251 115.182C183.238 115.182 183.226 115.185 183.215 115.189C183.203 115.194 183.193 115.201 183.184 115.21C183.175 115.218 183.168 115.229 183.164 115.24C183.159 115.251 183.156 115.263 183.156 115.276C183.156 115.288 183.159 115.3 183.164 115.312C183.168 115.323 183.175 115.333 183.184 115.342C183.193 115.351 183.203 115.357 183.215 115.362C183.226 115.367 183.238 115.369 183.251 115.369C186.059 115.949 197.516 117.239 200.343 117.52C203.17 117.8 215.834 119.034 217.304 118.978C217.304 118.978 217.285 118.81 217.172 118.791Z" fill="#263238"/>
<path id="Vector_109" d="M215.305 125.972L181.177 122.531C181.177 122.531 179.066 98.3909 181.177 83.8059C182.666 73.1663 185.323 66.3039 190.373 68.155L215.305 125.972Z" fill="#263238"/>
<path id="Vector_110" d="M191.92 194.502L196.838 153.683C196.838 153.683 212.423 142.221 210.614 127.505C209.709 120.025 199.59 81.8612 191.09 70.3053C183.1 59.4601 167.233 62.0031 160.203 66.9022C137.834 82.5156 119.517 99.4567 91.7767 158.264L191.92 194.502Z" fill="#4498F6"/>
<path id="Vector_111" d="M155.831 80.553C155.835 80.9605 155.717 81.36 155.491 81.7007C155.266 82.0414 154.943 82.308 154.565 82.4665C154.186 82.6251 153.769 82.6685 153.365 82.5912C152.962 82.514 152.591 82.3196 152.299 82.0327C152.007 81.7458 151.808 81.3793 151.727 80.9798C151.645 80.5804 151.685 80.1658 151.841 79.7889C151.998 79.412 152.263 79.0896 152.605 78.8628C152.946 78.6359 153.347 78.5148 153.758 78.5148C154.305 78.5147 154.829 78.7289 155.217 79.1106C155.606 79.4923 155.826 80.0107 155.831 80.553ZM171.793 78.5148C171.381 78.5111 170.978 78.629 170.634 78.8536C170.291 79.0782 170.022 79.3992 169.863 79.7758C169.703 80.1524 169.661 80.5675 169.74 80.9683C169.82 81.369 170.017 81.7372 170.308 82.026C170.599 82.3148 170.971 82.511 171.374 82.5898C171.778 82.6686 172.197 82.6263 172.576 82.4683C172.956 82.3103 173.279 82.0438 173.506 81.7027C173.732 81.3616 173.851 80.9613 173.847 80.553C173.847 80.0124 173.631 79.494 173.245 79.1117C172.86 78.7295 172.338 78.5148 171.793 78.5148ZM189.809 78.5148C189.398 78.5148 188.997 78.6359 188.655 78.8628C188.314 79.0896 188.048 79.412 187.892 79.7889C187.736 80.1658 187.696 80.5804 187.777 80.9798C187.859 81.3793 188.058 81.7458 188.35 82.0327C188.642 82.3196 189.013 82.514 189.416 82.5912C189.82 82.6685 190.237 82.6251 190.615 82.4665C190.994 82.308 191.316 82.0414 191.542 81.7007C191.767 81.36 191.886 80.9605 191.882 80.553C191.882 80.2837 191.828 80.0171 191.724 79.7686C191.619 79.5201 191.466 79.2946 191.274 79.1051C191.081 78.9156 190.852 78.7659 190.601 78.6645C190.349 78.5632 190.08 78.5123 189.809 78.5148ZM162.766 65.5939C162.66 65.5758 162.552 65.5758 162.446 65.5939C162.038 65.7897 161.642 66.0082 161.259 66.2484C160.912 66.619 160.723 67.108 160.731 67.6134C160.731 68.021 160.853 68.4194 161.082 68.7581C161.31 69.0967 161.635 69.3603 162.015 69.5154C162.395 69.6705 162.813 69.7102 163.215 69.6293C163.618 69.5484 163.987 69.3506 164.276 69.0611C164.566 68.7715 164.761 68.4033 164.839 68.0031C164.917 67.6029 164.873 67.1887 164.714 66.8132C164.554 66.4377 164.285 66.1178 163.942 65.894C163.598 65.6703 163.196 65.5528 162.785 65.5565L162.766 65.5939ZM180.801 65.5939C180.391 65.5939 179.99 65.7146 179.649 65.9406C179.308 66.1666 179.043 66.4878 178.886 66.8637C178.729 67.2395 178.688 67.6531 178.768 68.0521C178.848 68.4511 179.045 68.8176 179.335 69.1052C179.625 69.3929 179.994 69.5888 180.397 69.6682C180.799 69.7475 181.215 69.7068 181.594 69.5511C181.973 69.3954 182.297 69.1318 182.525 68.7935C182.752 68.4553 182.874 68.0576 182.874 67.6508C182.874 67.1053 182.656 66.5821 182.267 66.1964C181.878 65.8106 181.351 65.5939 180.801 65.5939ZM135.686 104.413C135.276 104.413 134.875 104.533 134.534 104.759C134.193 104.985 133.928 105.306 133.771 105.682C133.614 106.058 133.573 106.472 133.653 106.871C133.733 107.27 133.93 107.636 134.22 107.924C134.51 108.212 134.879 108.407 135.281 108.487C135.683 108.566 136.1 108.525 136.479 108.37C136.858 108.214 137.182 107.95 137.409 107.612C137.637 107.274 137.759 106.876 137.759 106.469C137.761 106.199 137.709 105.93 137.606 105.679C137.503 105.429 137.35 105.201 137.157 105.009C136.964 104.818 136.735 104.667 136.482 104.564C136.229 104.462 135.959 104.41 135.686 104.413ZM153.721 104.413C153.311 104.413 152.91 104.533 152.569 104.759C152.228 104.985 151.962 105.306 151.805 105.682C151.648 106.058 151.607 106.472 151.687 106.871C151.767 107.27 151.965 107.636 152.255 107.924C152.545 108.212 152.914 108.407 153.316 108.487C153.718 108.566 154.135 108.525 154.514 108.37C154.893 108.214 155.216 107.95 155.444 107.612C155.672 107.274 155.794 106.876 155.794 106.469C155.794 105.93 155.58 105.413 155.2 105.028C154.819 104.643 154.301 104.422 153.758 104.413H153.721ZM171.755 104.413C171.345 104.409 170.942 104.526 170.599 104.75C170.255 104.974 169.987 105.294 169.827 105.669C169.667 106.045 169.623 106.459 169.701 106.859C169.779 107.259 169.975 107.628 170.264 107.917C170.553 108.207 170.922 108.404 171.325 108.485C171.728 108.566 172.145 108.527 172.525 108.371C172.905 108.216 173.23 107.953 173.459 107.614C173.687 107.275 173.809 106.877 173.809 106.469C173.81 105.933 173.599 105.419 173.222 105.034C172.846 104.65 172.333 104.427 171.793 104.413H171.755ZM189.771 104.413C189.361 104.413 188.96 104.533 188.62 104.759C188.279 104.985 188.013 105.306 187.856 105.682C187.699 106.058 187.658 106.472 187.738 106.871C187.818 107.27 188.016 107.636 188.305 107.924C188.595 108.212 188.965 108.407 189.367 108.487C189.769 108.566 190.186 108.525 190.565 108.37C190.943 108.214 191.267 107.95 191.495 107.612C191.723 107.274 191.844 106.876 191.844 106.469C191.847 106.202 191.796 105.936 191.695 105.688C191.594 105.44 191.445 105.214 191.256 105.023C191.067 104.832 190.842 104.68 190.594 104.575C190.345 104.47 190.079 104.415 189.809 104.413H189.771ZM144.713 91.4917C144.302 91.488 143.899 91.6055 143.556 91.8292C143.212 92.053 142.944 92.3729 142.784 92.7484C142.624 93.1239 142.581 93.5381 142.658 93.9383C142.736 94.3385 142.932 94.7067 143.221 94.9963C143.51 95.2858 143.88 95.4835 144.282 95.5644C144.685 95.6453 145.103 95.6057 145.483 95.4506C145.863 95.2955 146.187 95.0319 146.416 94.6932C146.645 94.3546 146.767 93.9562 146.767 93.5486C146.767 93.0126 146.556 92.4978 146.18 92.1136C145.803 91.7295 145.29 91.5063 144.75 91.4917H144.713ZM162.729 91.4917C162.319 91.4917 161.918 91.6123 161.577 91.8383C161.236 92.0644 160.97 92.3856 160.813 92.7614C160.656 93.1373 160.615 93.5509 160.695 93.9499C160.775 94.3488 160.973 94.7153 161.263 95.003C161.553 95.2907 161.922 95.4865 162.324 95.5659C162.726 95.6453 163.143 95.6045 163.522 95.4489C163.901 95.2932 164.224 95.0296 164.452 94.6913C164.68 94.3531 164.801 93.9554 164.801 93.5486C164.802 93.0095 164.588 92.4919 164.208 92.1072C163.827 91.7225 163.309 91.5015 162.766 91.4917H162.729ZM180.763 91.4917C180.353 91.4917 179.952 91.6123 179.612 91.8383C179.271 92.0644 179.005 92.3856 178.848 92.7614C178.691 93.1373 178.65 93.5509 178.73 93.9499C178.81 94.3488 179.008 94.7153 179.297 95.003C179.587 95.2907 179.957 95.4865 180.359 95.5659C180.761 95.6453 181.178 95.6045 181.557 95.4489C181.935 95.2932 182.259 95.0296 182.487 94.6913C182.715 94.3531 182.836 93.9554 182.836 93.5486C182.832 93.0109 182.617 92.4961 182.237 92.1124C181.858 91.7287 181.343 91.5062 180.801 91.4917H180.763ZM198.798 91.4917C198.387 91.488 197.985 91.6055 197.641 91.8292C197.298 92.053 197.029 92.3729 196.869 92.7484C196.71 93.1239 196.666 93.5381 196.744 93.9383C196.822 94.3385 197.018 94.7067 197.307 94.9963C197.596 95.2858 197.965 95.4835 198.368 95.5644C198.77 95.6453 199.188 95.6057 199.568 95.4506C199.948 95.2955 200.273 95.0319 200.501 94.6932C200.73 94.3546 200.852 93.9562 200.852 93.5486C200.852 93.0126 200.642 92.4978 200.265 92.1136C199.889 91.7295 199.376 91.5063 198.836 91.4917H198.798ZM117.764 130.31C117.353 130.307 116.951 130.424 116.607 130.648C116.264 130.872 115.995 131.192 115.836 131.567C115.676 131.943 115.632 132.357 115.71 132.757C115.788 133.157 115.984 133.525 116.273 133.815C116.562 134.104 116.931 134.302 117.334 134.383C117.736 134.464 118.154 134.424 118.534 134.269C118.914 134.114 119.239 133.85 119.468 133.512C119.696 133.173 119.818 132.775 119.818 132.367C119.818 132.094 119.763 131.823 119.657 131.571C119.55 131.319 119.394 131.091 119.198 130.899C119.001 130.708 118.768 130.557 118.512 130.456C118.257 130.355 117.983 130.305 117.708 130.31H117.764ZM135.78 130.31C135.37 130.31 134.969 130.431 134.628 130.657C134.287 130.883 134.022 131.204 133.865 131.58C133.708 131.956 133.667 132.369 133.747 132.768C133.827 133.167 134.024 133.534 134.314 133.822C134.604 134.109 134.973 134.305 135.376 134.385C135.778 134.464 136.195 134.423 136.573 134.267C136.952 134.112 137.276 133.848 137.504 133.51C137.731 133.172 137.853 132.774 137.853 132.367C137.856 132.088 137.801 131.812 137.692 131.555C137.583 131.297 137.422 131.065 137.219 130.873C137.016 130.68 136.775 130.53 136.511 130.434C136.247 130.337 135.966 130.295 135.686 130.31H135.78ZM153.815 130.31C153.405 130.31 153.004 130.431 152.663 130.657C152.322 130.883 152.057 131.204 151.9 131.58C151.743 131.956 151.702 132.369 151.782 132.768C151.862 133.167 152.059 133.534 152.349 133.822C152.639 134.109 153.008 134.305 153.41 134.385C153.812 134.464 154.229 134.423 154.608 134.267C154.987 134.112 155.311 133.848 155.538 133.51C155.766 133.172 155.888 132.774 155.888 132.367C155.888 132.092 155.832 131.82 155.725 131.567C155.617 131.314 155.459 131.084 155.261 130.893C155.062 130.701 154.827 130.55 154.569 130.45C154.311 130.35 154.035 130.303 153.758 130.31H153.815ZM171.85 130.31C171.439 130.307 171.036 130.424 170.693 130.648C170.349 130.872 170.081 131.192 169.921 131.567C169.761 131.943 169.717 132.357 169.795 132.757C169.873 133.157 170.069 133.525 170.358 133.815C170.647 134.104 171.017 134.302 171.419 134.383C171.822 134.464 172.24 134.424 172.62 134.269C172.999 134.114 173.324 133.85 173.553 133.512C173.782 133.173 173.904 132.775 173.904 132.367C173.904 132.094 173.849 131.823 173.742 131.571C173.636 131.319 173.48 131.091 173.283 130.899C173.087 130.708 172.854 130.557 172.598 130.456C172.342 130.355 172.068 130.305 171.793 130.31H171.85ZM189.865 130.31C189.455 130.31 189.055 130.431 188.714 130.657C188.373 130.883 188.107 131.204 187.95 131.58C187.793 131.956 187.752 132.369 187.832 132.768C187.912 133.167 188.11 133.534 188.4 133.822C188.69 134.109 189.059 134.305 189.461 134.385C189.863 134.464 190.28 134.423 190.659 134.267C191.038 134.112 191.361 133.848 191.589 133.51C191.817 133.172 191.938 132.774 191.938 132.367C191.941 132.092 191.888 131.818 191.781 131.564C191.674 131.309 191.516 131.079 191.317 130.887C191.118 130.694 190.882 130.544 190.623 130.445C190.363 130.346 190.087 130.3 189.809 130.31H189.865ZM207.9 130.31C207.49 130.31 207.089 130.431 206.749 130.657C206.408 130.883 206.142 131.204 205.985 131.58C205.828 131.956 205.787 132.369 205.867 132.768C205.947 133.167 206.144 133.534 206.434 133.822C206.724 134.109 207.094 134.305 207.496 134.385C207.898 134.464 208.315 134.423 208.694 134.267C209.072 134.112 209.396 133.848 209.624 133.51C209.852 133.172 209.973 132.774 209.973 132.367C209.973 132.092 209.918 131.82 209.81 131.567C209.702 131.314 209.545 131.084 209.346 130.893C209.148 130.701 208.912 130.55 208.654 130.45C208.396 130.35 208.121 130.303 207.844 130.31H207.9ZM126.866 117.408C126.456 117.408 126.054 117.529 125.713 117.756C125.371 117.983 125.106 118.305 124.949 118.682C124.793 119.059 124.753 119.474 124.835 119.873C124.916 120.273 125.115 120.639 125.407 120.926C125.699 121.213 126.07 121.407 126.474 121.485C126.877 121.562 127.294 121.518 127.673 121.36C128.051 121.201 128.374 120.935 128.599 120.594C128.825 120.253 128.943 119.854 128.939 119.446C128.94 119.164 128.882 118.884 128.768 118.625C128.655 118.367 128.488 118.134 128.279 117.942C128.07 117.751 127.823 117.604 127.554 117.512C127.285 117.42 126.999 117.385 126.716 117.408H126.866ZM144.901 117.408C144.489 117.404 144.086 117.522 143.742 117.747C143.399 117.972 143.13 118.293 142.971 118.669C142.811 119.046 142.769 119.461 142.848 119.862C142.928 120.262 143.125 120.631 143.416 120.919C143.708 121.208 144.079 121.404 144.482 121.483C144.886 121.562 145.305 121.52 145.684 121.362C146.064 121.204 146.387 120.937 146.614 120.596C146.84 120.255 146.959 119.855 146.955 119.446C146.956 119.166 146.898 118.888 146.786 118.63C146.673 118.373 146.508 118.141 146.301 117.95C146.094 117.758 145.85 117.611 145.583 117.518C145.316 117.425 145.032 117.388 144.75 117.408H144.901ZM162.917 117.408C162.506 117.408 162.105 117.529 161.763 117.756C161.422 117.983 161.156 118.305 161 118.682C160.844 119.059 160.804 119.474 160.885 119.873C160.967 120.273 161.166 120.639 161.458 120.926C161.75 121.213 162.121 121.407 162.524 121.485C162.928 121.562 163.345 121.518 163.723 121.36C164.102 121.201 164.424 120.935 164.65 120.594C164.875 120.253 164.994 119.854 164.99 119.446C164.991 119.164 164.933 118.884 164.819 118.625C164.705 118.367 164.539 118.134 164.33 117.942C164.121 117.751 163.874 117.604 163.604 117.512C163.335 117.42 163.05 117.385 162.766 117.408H162.917ZM180.952 117.408C180.541 117.408 180.139 117.529 179.798 117.756C179.457 117.983 179.191 118.305 179.035 118.682C178.878 119.059 178.839 119.474 178.92 119.873C179.002 120.273 179.201 120.639 179.493 120.926C179.785 121.213 180.156 121.407 180.559 121.485C180.962 121.562 181.38 121.518 181.758 121.36C182.137 121.201 182.459 120.935 182.685 120.594C182.91 120.253 183.028 119.854 183.025 119.446C183.023 119.165 182.963 118.887 182.848 118.629C182.734 118.371 182.567 118.14 182.358 117.949C182.15 117.758 181.904 117.611 181.636 117.518C181.368 117.425 181.084 117.388 180.801 117.408H180.952ZM198.986 117.408C198.575 117.404 198.172 117.522 197.828 117.747C197.484 117.972 197.215 118.293 197.056 118.669C196.897 119.046 196.854 119.461 196.934 119.862C197.013 120.262 197.211 120.631 197.502 120.919C197.793 121.208 198.164 121.404 198.568 121.483C198.972 121.562 199.39 121.52 199.77 121.362C200.149 121.204 200.473 120.937 200.699 120.596C200.925 120.255 201.044 119.855 201.041 119.446C201.041 119.166 200.984 118.888 200.871 118.63C200.759 118.373 200.594 118.141 200.387 117.95C200.18 117.758 199.935 117.611 199.668 117.518C199.401 117.425 199.118 117.388 198.836 117.408H198.986ZM99.8236 156.208C99.4136 156.208 99.0128 156.329 98.6719 156.555C98.331 156.781 98.0653 157.102 97.9084 157.478C97.7515 157.854 97.7105 158.267 97.7904 158.666C97.8704 159.065 98.0679 159.432 98.3578 159.719C98.6477 160.007 99.017 160.203 99.4191 160.282C99.8213 160.362 100.238 160.321 100.617 160.165C100.996 160.01 101.319 159.746 101.547 159.408C101.775 159.069 101.897 158.672 101.897 158.265C101.897 157.982 101.839 157.702 101.726 157.442C101.612 157.182 101.446 156.948 101.237 156.755C101.028 156.562 100.782 156.414 100.512 156.32C100.243 156.225 99.9574 156.188 99.6728 156.208H99.8236ZM117.858 156.208C117.448 156.204 117.045 156.322 116.702 156.546C116.358 156.769 116.09 157.089 115.93 157.465C115.77 157.84 115.726 158.254 115.804 158.655C115.882 159.055 116.078 159.423 116.367 159.713C116.656 160.002 117.025 160.2 117.428 160.281C117.831 160.362 118.248 160.322 118.628 160.167C119.008 160.012 119.333 159.748 119.562 159.41C119.79 159.071 119.912 158.673 119.912 158.265C119.913 157.983 119.855 157.705 119.743 157.446C119.631 157.188 119.466 156.955 119.259 156.762C119.053 156.569 118.808 156.421 118.541 156.325C118.274 156.23 117.991 156.19 117.708 156.208H117.858ZM135.874 156.208C135.464 156.208 135.063 156.329 134.723 156.555C134.382 156.781 134.116 157.102 133.959 157.478C133.802 157.854 133.761 158.267 133.841 158.666C133.921 159.065 134.119 159.432 134.408 159.719C134.698 160.007 135.068 160.203 135.47 160.282C135.872 160.362 136.289 160.321 136.668 160.165C137.046 160.01 137.37 159.746 137.598 159.408C137.826 159.069 137.947 158.672 137.947 158.265C137.951 157.978 137.894 157.692 137.779 157.428C137.665 157.165 137.495 156.928 137.281 156.733C137.068 156.539 136.815 156.392 136.54 156.301C136.265 156.211 135.974 156.179 135.686 156.208H135.874ZM153.909 156.208C153.499 156.208 153.098 156.329 152.757 156.555C152.416 156.781 152.151 157.102 151.994 157.478C151.837 157.854 151.796 158.267 151.876 158.666C151.956 159.065 152.153 159.432 152.443 159.719C152.733 160.007 153.102 160.203 153.505 160.282C153.907 160.362 154.324 160.321 154.702 160.165C155.081 160.01 155.405 159.746 155.633 159.408C155.86 159.069 155.982 158.672 155.982 158.265C155.983 157.982 155.925 157.702 155.811 157.442C155.698 157.182 155.531 156.948 155.323 156.755C155.114 156.562 154.867 156.414 154.598 156.32C154.329 156.225 154.043 156.188 153.758 156.208H153.909ZM171.944 156.208C171.533 156.204 171.13 156.322 170.787 156.546C170.444 156.769 170.175 157.089 170.015 157.465C169.855 157.84 169.812 158.254 169.89 158.655C169.967 159.055 170.163 159.423 170.452 159.713C170.742 160.002 171.111 160.2 171.514 160.281C171.916 160.362 172.334 160.322 172.714 160.167C173.094 160.012 173.419 159.748 173.647 159.41C173.876 159.071 173.998 158.673 173.998 158.265C173.998 157.983 173.941 157.705 173.828 157.446C173.716 157.188 173.552 156.955 173.345 156.762C173.138 156.569 172.894 156.421 172.627 156.325C172.36 156.23 172.076 156.19 171.793 156.208H171.944ZM189.96 156.208C189.55 156.208 189.149 156.329 188.808 156.555C188.467 156.781 188.201 157.102 188.045 157.478C187.888 157.854 187.847 158.267 187.927 158.666C188.007 159.065 188.204 159.432 188.494 159.719C188.784 160.007 189.153 160.203 189.555 160.282C189.957 160.362 190.374 160.321 190.753 160.165C191.132 160.01 191.456 159.746 191.683 159.408C191.911 159.069 192.033 158.672 192.033 158.265C192.036 157.981 191.98 157.699 191.867 157.438C191.755 157.177 191.589 156.942 191.379 156.748C191.17 156.555 190.922 156.407 190.652 156.314C190.381 156.221 190.094 156.185 189.809 156.208H189.96ZM108.832 143.306C108.421 143.306 108.019 143.427 107.678 143.654C107.337 143.881 107.071 144.203 106.915 144.58C106.758 144.957 106.718 145.372 106.8 145.771C106.881 146.171 107.081 146.537 107.373 146.824C107.664 147.111 108.035 147.305 108.439 147.382C108.842 147.46 109.26 147.416 109.638 147.258C110.016 147.099 110.339 146.833 110.564 146.492C110.79 146.151 110.908 145.752 110.904 145.344C110.905 145.062 110.847 144.782 110.734 144.523C110.62 144.264 110.453 144.032 110.244 143.84C110.035 143.648 109.788 143.502 109.519 143.41C109.25 143.318 108.964 143.283 108.681 143.306H108.832ZM126.866 143.306C126.456 143.306 126.054 143.427 125.713 143.654C125.371 143.881 125.106 144.203 124.949 144.58C124.793 144.957 124.753 145.372 124.835 145.771C124.916 146.171 125.115 146.537 125.407 146.824C125.699 147.111 126.07 147.305 126.474 147.382C126.877 147.46 127.294 147.416 127.673 147.258C128.051 147.099 128.374 146.833 128.599 146.492C128.825 146.151 128.943 145.752 128.939 145.344C128.94 145.062 128.882 144.782 128.768 144.523C128.655 144.264 128.488 144.032 128.279 143.84C128.07 143.648 127.823 143.502 127.554 143.41C127.285 143.318 126.999 143.283 126.716 143.306H126.866ZM144.901 143.306C144.489 143.302 144.086 143.42 143.742 143.645C143.399 143.869 143.13 144.19 142.971 144.567C142.811 144.944 142.769 145.359 142.848 145.759C142.928 146.16 143.125 146.528 143.416 146.817C143.708 147.106 144.079 147.302 144.482 147.381C144.886 147.46 145.305 147.417 145.684 147.259C146.064 147.101 146.387 146.835 146.614 146.494C146.84 146.153 146.959 145.753 146.955 145.344C146.956 145.063 146.898 144.786 146.786 144.528C146.673 144.27 146.508 144.039 146.301 143.847C146.094 143.656 145.85 143.509 145.583 143.416C145.316 143.323 145.032 143.285 144.75 143.306H144.901ZM162.917 143.306C162.506 143.306 162.105 143.427 161.763 143.654C161.422 143.881 161.156 144.203 161 144.58C160.844 144.957 160.804 145.372 160.885 145.771C160.967 146.171 161.166 146.537 161.458 146.824C161.75 147.111 162.121 147.305 162.524 147.382C162.928 147.46 163.345 147.416 163.723 147.258C164.102 147.099 164.424 146.833 164.65 146.492C164.875 146.151 164.994 145.752 164.99 145.344C164.991 145.062 164.933 144.782 164.819 144.523C164.705 144.264 164.539 144.032 164.33 143.84C164.121 143.648 163.874 143.502 163.604 143.41C163.335 143.318 163.05 143.283 162.766 143.306H162.917ZM180.952 143.306C180.541 143.306 180.139 143.427 179.798 143.654C179.457 143.881 179.191 144.203 179.035 144.58C178.878 144.957 178.839 145.372 178.92 145.771C179.002 146.171 179.201 146.537 179.493 146.824C179.785 147.111 180.156 147.305 180.559 147.382C180.962 147.46 181.38 147.416 181.758 147.258C182.137 147.099 182.459 146.833 182.685 146.492C182.91 146.151 183.028 145.752 183.025 145.344C183.023 145.063 182.963 144.784 182.848 144.527C182.734 144.269 182.567 144.038 182.358 143.846C182.15 143.655 181.904 143.509 181.636 143.416C181.368 143.323 181.084 143.285 180.801 143.306H180.952ZM198.986 143.306C198.575 143.302 198.172 143.42 197.828 143.645C197.484 143.869 197.215 144.19 197.056 144.567C196.897 144.944 196.854 145.359 196.934 145.759C197.013 146.16 197.211 146.528 197.502 146.817C197.793 147.106 198.164 147.302 198.568 147.381C198.972 147.46 199.39 147.417 199.77 147.259C200.149 147.101 200.473 146.835 200.699 146.494C200.925 146.153 201.044 145.753 201.041 145.344C201.041 145.063 200.984 144.786 200.871 144.528C200.759 144.27 200.594 144.039 200.387 143.847C200.18 143.656 199.935 143.509 199.668 143.416C199.401 143.323 199.118 143.285 198.836 143.306H198.986ZM171.793 182.068C171.382 182.065 170.98 182.182 170.636 182.406C170.293 182.63 170.024 182.95 169.864 183.325C169.705 183.701 169.661 184.115 169.739 184.515C169.817 184.915 170.013 185.283 170.302 185.573C170.591 185.863 170.96 186.06 171.363 186.141C171.765 186.222 172.183 186.182 172.563 186.027C172.943 185.872 173.268 185.609 173.496 185.27C173.725 184.931 173.847 184.533 173.847 184.125C173.847 183.583 173.631 183.063 173.247 182.677C172.862 182.292 172.34 182.073 171.793 182.068ZM189.809 182.068C189.399 182.068 188.998 182.189 188.657 182.415C188.316 182.641 188.051 182.962 187.894 183.338C187.737 183.714 187.696 184.128 187.776 184.527C187.856 184.926 188.053 185.292 188.343 185.58C188.633 185.867 189.002 186.063 189.405 186.143C189.807 186.222 190.223 186.181 190.602 186.026C190.981 185.87 191.305 185.606 191.533 185.268C191.76 184.93 191.882 184.532 191.882 184.125C191.882 183.58 191.663 183.057 191.275 182.671C190.886 182.285 190.359 182.068 189.809 182.068ZM126.716 169.166C126.332 169.15 125.952 169.241 125.618 169.429C125.285 169.618 125.012 169.896 124.831 170.232L128.6 171.635C128.61 171.491 128.61 171.348 128.6 171.205C128.588 170.7 128.39 170.217 128.042 169.848C127.695 169.479 127.222 169.25 126.716 169.204V169.166ZM144.75 169.166C144.339 169.163 143.935 169.281 143.592 169.505C143.248 169.73 142.979 170.051 142.82 170.427C142.661 170.804 142.618 171.219 142.697 171.62C142.777 172.021 142.975 172.389 143.266 172.678C143.557 172.966 143.928 173.163 144.332 173.241C144.736 173.32 145.154 173.278 145.533 173.12C145.913 172.962 146.237 172.695 146.463 172.354C146.689 172.013 146.808 171.613 146.804 171.205C146.795 170.67 146.574 170.162 146.19 169.787C145.805 169.413 145.289 169.204 144.75 169.204V169.166ZM162.766 169.166C162.355 169.166 161.954 169.287 161.613 169.514C161.271 169.741 161.006 170.064 160.849 170.44C160.693 170.817 160.653 171.232 160.735 171.631C160.816 172.031 161.015 172.397 161.307 172.684C161.599 172.971 161.97 173.166 162.373 173.243C162.777 173.32 163.194 173.277 163.573 173.118C163.951 172.96 164.274 172.693 164.499 172.352C164.725 172.012 164.843 171.612 164.839 171.205C164.829 170.667 164.606 170.156 164.218 169.781C163.829 169.406 163.308 169.199 162.766 169.204V169.166ZM180.801 169.166C180.39 169.166 179.989 169.287 179.647 169.514C179.306 169.741 179.04 170.064 178.884 170.44C178.728 170.817 178.688 171.232 178.769 171.631C178.851 172.031 179.05 172.397 179.342 172.684C179.634 172.971 180.005 173.166 180.408 173.243C180.812 173.32 181.229 173.277 181.607 173.118C181.986 172.96 182.308 172.693 182.534 172.352C182.759 172.012 182.878 171.612 182.874 171.205C182.859 170.669 182.634 170.16 182.247 169.786C181.86 169.413 181.341 169.204 180.801 169.204V169.166Z" fill="white"/>
<path id="Vector_112" d="M161.229 227.636L169.158 246.762L281.639 200.851L273.71 181.725L161.229 227.636Z" fill="#C7C7C7"/>
<path id="Vector_113" d="M102.028 246.074L114.014 275.001L192.579 242.932L180.575 214.005L102.028 246.074Z" fill="#263238"/>
<path id="Vector_114" d="M278.418 109.46C288.036 93.4475 302.223 80.6249 319.186 72.6136C336.148 64.6023 355.124 61.7623 373.714 64.4525C392.303 67.1427 409.671 75.2425 423.621 87.7274C437.571 100.212 447.476 116.522 452.084 134.592C456.692 152.663 455.795 171.684 449.508 189.249C443.22 206.815 431.824 222.135 416.761 233.274C401.697 244.412 383.643 250.868 364.882 251.825C346.12 252.782 327.494 248.197 311.359 238.649C289.747 225.832 274.141 205.033 267.966 180.813C261.79 156.594 265.549 130.933 278.418 109.46ZM287.84 115.069C279.324 129.244 275.235 145.606 276.091 162.086C276.946 178.566 282.708 194.424 292.647 207.655C302.586 220.886 316.256 230.896 331.929 236.418C347.601 241.94 364.572 242.726 380.695 238.678C396.818 234.629 411.369 225.928 422.508 213.673C433.647 201.419 440.873 186.163 443.273 169.833C445.673 153.504 443.139 136.835 435.991 121.935C428.843 107.035 417.402 94.5722 403.116 86.1237C383.958 74.7942 361.053 71.4691 339.427 76.8783C317.801 82.2875 299.221 95.989 287.765 114.976L287.84 115.069Z" fill="#37474F"/>
<path id="Vector_115" d="M350.049 254.263C325.581 251.863 302.909 240.45 286.506 222.276C270.104 204.103 261.162 180.489 261.447 156.095C261.731 131.7 271.22 108.298 288.042 90.5052C304.864 72.7128 327.796 61.823 352.313 59.985C376.83 58.147 401.151 65.4942 420.476 80.5768C439.801 95.6593 452.726 117.381 456.702 141.456C460.677 165.532 455.412 190.211 441.948 210.623C428.483 231.036 407.797 245.699 383.97 251.72C372.901 254.535 361.419 255.396 350.049 254.263ZM369.365 66.7144C354.614 65.2103 339.715 67.2629 325.935 72.6976C312.154 78.1324 299.9 86.7885 290.214 97.9301C280.529 109.072 273.698 122.369 270.302 136.692C266.907 151.015 267.047 165.94 270.711 180.197C274.875 196.378 283.429 211.117 295.443 222.812C307.457 234.507 322.472 242.711 338.856 246.533C355.239 250.355 372.366 249.647 388.373 244.488C404.38 239.329 418.656 229.915 429.649 217.269C440.642 204.624 447.932 189.231 450.726 172.763C453.52 156.295 451.712 139.382 445.497 123.862C439.283 108.342 428.901 94.8092 415.478 84.7339C402.056 74.6586 386.107 68.4263 369.365 66.7144ZM351.161 243.511C336.63 242.029 322.71 236.939 310.685 228.711C298.66 220.482 288.918 209.381 282.359 196.43C275.799 183.48 272.633 169.099 273.153 154.615C273.674 140.13 277.863 126.009 285.335 113.555C292.646 101.364 302.876 91.1507 315.117 83.8207C327.358 76.4907 341.232 72.2702 355.51 71.5333C369.788 70.7964 384.028 73.5658 396.97 79.596C409.911 85.6263 421.153 94.7311 429.7 106.104C438.246 117.476 443.834 130.765 445.966 144.793C448.099 158.82 446.711 173.153 441.925 186.521C437.139 199.889 429.104 211.879 418.531 221.429C407.959 230.978 395.175 237.792 381.313 241.267C371.47 243.746 361.267 244.505 351.161 243.511ZM290.197 116.36C280.538 132.393 276.782 151.255 279.569 169.729C282.357 188.204 291.515 205.147 305.484 217.671C319.453 230.194 337.366 237.524 356.172 238.409C374.977 239.294 393.509 233.68 408.61 222.525C423.711 211.369 434.445 195.363 438.983 177.233C443.52 159.104 441.58 139.974 433.494 123.105C425.408 106.235 411.675 92.6711 394.638 84.7239C377.6 76.7767 358.312 74.9387 340.061 79.523C319.178 84.786 301.252 98.0539 290.216 116.416L290.197 116.36Z" fill="#37474F"/>
<g id="Group" opacity="0.2">
<path id="Vector_116" opacity="0.2" d="M391.092 83.7137C376.345 77.6146 360.106 75.9911 344.429 79.0486C328.752 82.1061 314.34 89.7073 303.017 100.891C291.693 112.075 283.966 126.339 280.811 141.88C277.657 157.421 279.218 173.541 285.296 188.202C291.375 202.863 301.698 215.407 314.96 224.247C328.223 233.087 343.829 237.826 359.806 237.867C375.783 237.907 391.414 233.245 404.721 224.472C418.028 215.698 428.415 203.207 434.568 188.576C442.811 168.95 442.863 146.878 434.71 127.214C426.557 107.55 410.868 91.9034 391.092 83.7137Z" fill="white"/>
<path id="Vector_117" opacity="0.2" d="M368.95 78.0099C347.777 75.6837 326.535 81.7388 309.835 94.8605C293.135 107.982 282.326 127.111 279.756 148.093L368.95 78.0099Z" fill="#EBEBEB"/>
<path id="Vector_118" opacity="0.2" d="M434.341 126.366L312.169 222.346C317.349 226.107 322.96 229.245 328.884 231.696C335.668 234.532 342.816 236.42 350.123 237.305L440.334 166.437C441.838 152.791 439.774 138.99 434.341 126.366Z" fill="#EBEBEB"/>
<path id="Vector_119" opacity="0.2" d="M398.366 87.1721L281.979 178.59C283.379 183.666 285.272 188.594 287.632 193.306L411.558 95.9418C407.47 92.5846 403.05 89.6464 398.366 87.1721Z" fill="#EBEBEB"/>
<path id="Vector_120" opacity="0.2" d="M429.329 116.623L303.708 215.277C304.424 215.969 305.121 216.624 305.856 217.278L430.78 119.147C430.328 118.249 429.857 117.408 429.329 116.623Z" fill="#EBEBEB"/>
<path id="Vector_121" opacity="0.2" d="M432.91 192.259L377.166 236.052C379.528 235.541 381.865 234.917 384.176 234.182L429.518 198.654C430.743 196.541 431.873 194.428 432.91 192.259Z" fill="#EBEBEB"/>
</g>
<path id="Vector_122" d="M152.797 71.2581C140.962 79.3547 89.5717 120.642 83.4659 144.389C79.6969 158.955 105.854 210.115 112.921 222.363C116.011 227.692 152.967 209.442 154.38 203.01C155.793 196.577 129.128 150.279 128.638 145.455C128.638 145.455 152.439 107.403 165.084 87.1333C177.032 68.0045 174.902 56.1495 152.797 71.2581Z" fill="#F7D5CE"/>
<path id="Vector_123" d="M169.607 237.921C173.809 244.391 184.683 249.458 180.914 253.834C177.616 257.742 170.38 253.497 170.38 253.497C170.38 253.497 176.975 260.883 172.264 264.081C167.553 267.278 160.542 261.014 160.542 261.014C160.542 261.014 166.309 266.923 161.315 269.765C156.321 272.608 149.461 268.363 149.461 268.363C149.461 268.363 149.933 271.186 145.504 271.617C139.172 272.252 129.618 262.398 125.867 256.097C122.117 249.795 113.09 223.916 111.771 219.933L152.401 195.625C152.401 195.625 164.293 203.796 169.814 208.714C175.336 213.632 189.036 234.649 184.005 238.37C178.973 242.091 169.55 227.057 166.422 223.879C163.294 220.7 162.031 220.868 162.314 223.392C162.465 225.075 167.722 235.06 169.607 237.921Z" fill="#F7D5CE"/>
<path id="Vector_124" d="M170.171 253.123C160.542 246.522 157.47 241.904 152.947 231.451C152.947 231.245 152.532 231.32 152.608 231.544C156.094 242.259 159.091 248.504 169.87 253.609C170.398 253.871 170.624 253.441 170.171 253.123Z" fill="#263238"/>
<path id="Vector_125" d="M160.975 261.201C151.553 253.46 148.217 248.56 142.658 237.883C142.658 237.734 142.319 237.883 142.375 238.014C146.936 248.934 150.102 255.105 160.523 261.612C160.994 261.911 161.409 261.556 160.975 261.201Z" fill="#263238"/>
<path id="Vector_126" d="M149.385 268.213C140.811 260.079 136.891 254.862 132.839 243.792C132.812 243.751 132.772 243.72 132.726 243.704C132.679 243.688 132.629 243.687 132.582 243.702C132.535 243.717 132.494 243.746 132.466 243.786C132.438 243.826 132.423 243.874 132.425 243.923C135.44 255.591 140.302 262.135 149.103 268.437C149.706 268.867 149.913 268.717 149.385 268.213Z" fill="#263238"/>
<path id="Vector_127" d="M151.044 115.744L113.071 99.6257C113.071 99.6257 148.255 71.2223 160.975 65.7623C175.298 59.6104 175.316 68.2118 169.983 81.9367C164.65 95.6616 151.044 115.744 151.044 115.744Z" fill="#4498F6"/>
<path id="Vector_128" d="M137.778 80.6834C137.739 81.1959 137.505 81.6746 137.124 82.0221C136.742 82.3695 136.241 82.5595 135.723 82.5533C135.567 82.5728 135.409 82.5728 135.252 82.5533L137.778 80.6834ZM153.758 78.5144C153.347 78.5144 152.946 78.6355 152.605 78.8624C152.263 79.0892 151.998 79.4115 151.841 79.7885C151.685 80.1654 151.645 80.5799 151.727 80.9794C151.808 81.3789 152.007 81.7454 152.299 82.0323C152.591 82.3192 152.962 82.5136 153.365 82.5908C153.769 82.6681 154.186 82.6246 154.565 82.4661C154.943 82.3075 155.266 82.041 155.491 81.7003C155.717 81.3596 155.835 80.9601 155.831 80.5525C155.831 80.2833 155.777 80.0167 155.673 79.7682C155.569 79.5197 155.416 79.2942 155.223 79.1047C155.03 78.9152 154.801 78.7654 154.55 78.6641C154.299 78.5628 154.03 78.5119 153.758 78.5144ZM169.72 80.5525C169.708 80.9849 169.848 81.4078 170.116 81.7493C170.53 80.6647 170.926 79.5989 171.246 78.5892C170.81 78.7043 170.424 78.9591 170.148 79.314C169.872 79.669 169.721 80.1043 169.72 80.5525ZM162.766 65.5935C162.356 65.5935 161.955 65.7142 161.614 65.9402C161.274 66.1662 161.008 66.4874 160.851 66.8633C160.694 67.2391 160.653 67.6527 160.733 68.0517C160.813 68.4506 161.01 68.8171 161.3 69.1048C161.59 69.3925 161.96 69.5884 162.362 69.6677C162.764 69.7471 163.181 69.7063 163.559 69.5507C163.938 69.395 164.262 69.1314 164.49 68.7931C164.718 68.4549 164.839 68.0572 164.839 67.6504C164.842 67.3796 164.79 67.111 164.686 66.8603C164.583 66.6096 164.431 66.3819 164.238 66.1904C164.045 65.9989 163.815 65.8475 163.562 65.745C163.31 65.6425 163.039 65.591 162.766 65.5935ZM135.686 104.412C135.276 104.412 134.875 104.533 134.534 104.759C134.193 104.985 133.927 105.306 133.771 105.682C133.614 106.058 133.573 106.471 133.653 106.87C133.733 107.269 133.93 107.636 134.22 107.923C134.51 108.211 134.879 108.407 135.281 108.486C135.683 108.566 136.1 108.525 136.479 108.369C136.858 108.214 137.182 107.95 137.409 107.612C137.637 107.273 137.759 106.876 137.759 106.469C137.761 106.198 137.709 105.93 137.606 105.679C137.503 105.428 137.35 105.201 137.157 105.009C136.964 104.818 136.735 104.666 136.482 104.564C136.229 104.461 135.959 104.41 135.686 104.412ZM153.721 104.412C153.311 104.412 152.91 104.533 152.569 104.759C152.228 104.985 151.962 105.306 151.805 105.682C151.648 106.058 151.607 106.471 151.687 106.87C151.767 107.269 151.965 107.636 152.255 107.923C152.545 108.211 152.914 108.407 153.316 108.486C153.718 108.566 154.135 108.525 154.514 108.369C154.893 108.214 155.216 107.95 155.444 107.612C155.672 107.273 155.793 106.876 155.793 106.469C155.794 105.93 155.58 105.412 155.2 105.028C154.819 104.643 154.301 104.422 153.758 104.412H153.721ZM126.678 91.4913C126.268 91.4913 125.867 91.6119 125.526 91.8379C125.185 92.0639 124.92 92.3852 124.763 92.761C124.606 93.1369 124.565 93.5505 124.645 93.9494C124.725 94.3484 124.922 94.7149 125.212 95.0026C125.502 95.2902 125.871 95.4861 126.273 95.5655C126.676 95.6449 127.092 95.6041 127.471 95.4485C127.85 95.2928 128.174 95.0292 128.401 94.6909C128.629 94.3527 128.751 93.955 128.751 93.5482C128.751 93.0091 128.538 92.4915 128.157 92.1068C127.776 91.7221 127.259 91.5011 126.716 91.4913H126.678ZM144.713 91.4913C144.302 91.4876 143.899 91.6051 143.556 91.8288C143.212 92.0526 142.944 92.3725 142.784 92.748C142.624 93.1235 142.58 93.5376 142.658 93.9379C142.736 94.3381 142.932 94.7063 143.221 94.9959C143.51 95.2854 143.88 95.4831 144.282 95.564C144.685 95.6449 145.103 95.6053 145.483 95.4502C145.862 95.2951 146.187 95.0315 146.416 94.6928C146.645 94.3542 146.767 93.9558 146.767 93.5482C146.767 93.0122 146.556 92.4974 146.18 92.1132C145.803 91.729 145.29 91.5059 144.75 91.4913H144.713ZM162.728 91.4913C162.179 91.4913 161.651 91.708 161.263 92.0938C160.874 92.4795 160.656 93.0027 160.656 93.5482C160.656 94.0937 160.874 94.6169 161.263 95.0026C161.651 95.3883 162.179 95.605 162.728 95.605C162.974 95.608 163.217 95.5636 163.445 95.4741L164.745 93.0807C164.64 92.6352 164.389 92.237 164.03 91.9491C163.672 91.6612 163.227 91.5001 162.766 91.4913H162.728Z" fill="white"/>
<path id="Vector_129" d="M121.343 95.2115C122.757 95.5668 134.648 100.41 137.211 101.513C139.774 102.616 150.29 107.123 152.834 108.413C152.947 108.413 152.834 108.656 152.834 108.6C150.082 107.758 139.472 103.308 136.834 102.242C134.196 101.176 122.55 96.1091 121.343 95.3798C121.155 95.3237 121.249 95.1928 121.343 95.2115Z" fill="#263238"/>
<path id="Vector_130" d="M148.047 114.453C149.215 114.865 151.024 115.556 151.024 115.556C153.738 111.648 165.648 90.631 168.607 85.6384H168.739C167.256 88.5928 165.749 91.5285 164.216 94.4456L164.97 93.4545C165.874 92.2765 166.854 91.1172 167.683 89.9018C167.683 89.9018 167.928 89.9018 167.853 90.014C167.105 91.3121 166.274 92.5613 165.365 93.7537C164.725 94.5765 164.009 95.3618 163.292 96.1284C162.407 97.8113 161.54 99.4755 160.598 101.121C157.752 106.188 154.944 111.536 151.722 116.379C150.413 115.925 149.151 115.349 147.953 114.659C147.745 114.603 147.877 114.397 148.047 114.453Z" fill="#263238"/>
<path id="Vector_131" d="M263.041 232.125C261.878 233.205 260.399 233.892 258.818 234.087C257.237 234.282 255.634 233.974 254.24 233.209C254.24 233.209 255.295 240.258 250.264 243.419C247.682 245.045 242.726 242.371 242.726 242.371C242.726 242.371 243.31 247.981 238.655 250.58C234.886 252.618 230.608 249.627 230.608 249.627C230.608 249.627 228.611 255.33 224.182 256.19C215.174 257.948 194.426 228.403 202.171 216.249C205.789 210.64 210.463 218.119 210.463 218.119C210.463 218.119 206.374 205.741 212.347 201.29C218.321 196.84 223.843 206.9 223.843 206.9C223.843 206.9 219.98 194.877 226.689 190.931C233.68 186.836 237.43 197.85 237.43 197.85C237.43 197.85 237.298 188.182 243.084 186.331C252.733 183.283 251.998 204.899 258.16 210.322L272.218 204.525C272.218 204.525 267.865 227.843 263.041 232.125Z" fill="#F7D5CE"/>
<path id="Vector_132" d="M229.91 249.252C229.91 249.346 229.91 249.477 229.778 249.402C220.171 241.048 213.349 229.995 210.217 217.707C210.217 217.315 210.745 216.997 210.914 217.408C215.657 228.881 222.056 239.608 229.91 249.252Z" fill="#263238"/>
<path id="Vector_133" d="M242.82 242.558C242.914 242.671 242.82 242.82 242.612 242.727C233.19 234.35 224.936 220.98 223.447 206.825C223.447 206.339 223.843 205.853 223.937 206.414C225.652 215.726 235.319 233.62 242.82 242.558Z" fill="#263238"/>
<path id="Vector_134" d="M237.751 196.877C239.635 210.396 245.835 221.934 253.845 232.891C253.939 233.041 253.732 233.172 253.618 233.078C248.229 228.777 243.857 221.26 240.955 215.146C238.111 209.514 236.812 203.24 237.186 196.952C237.299 196.709 237.713 196.597 237.751 196.877Z" fill="#263238"/>
<path id="Vector_135" d="M210.368 217.315C209.473 214.851 208.958 212.266 208.842 209.649C208.604 206.937 209.368 204.233 210.99 202.038C211.89 200.929 213.115 200.126 214.495 199.738C215.935 199.438 217.436 199.706 218.679 200.486C220.962 202.012 222.806 204.099 224.031 206.545L222.825 207.012C222.086 204.418 221.793 201.719 221.958 199.028C222.073 196.238 223.197 193.583 225.124 191.548C226.145 190.545 227.411 189.824 228.799 189.454C229.521 189.291 230.269 189.275 230.998 189.407C231.727 189.538 232.421 189.815 233.039 190.221C235.237 191.89 236.868 194.187 237.713 196.803L236.827 196.934C236.932 195.667 237.166 194.414 237.524 193.194C237.862 191.941 238.382 190.744 239.069 189.641C239.743 188.511 240.696 187.571 241.84 186.911C243.002 186.323 244.316 186.102 245.609 186.275C244.34 186.218 243.083 186.53 241.99 187.173C240.953 187.861 240.11 188.801 239.541 189.903C238.408 192.131 237.766 194.572 237.656 197.064L237.543 198.934L236.77 197.064C235.902 194.716 234.355 192.673 232.323 191.193C231.844 190.875 231.302 190.661 230.734 190.564C230.166 190.468 229.584 190.491 229.025 190.632C227.857 190.972 226.802 191.618 225.972 192.502C224.293 194.331 223.342 196.704 223.296 199.177C223.121 201.693 223.363 204.219 224.012 206.657L225.35 211.893L222.787 207.143C221.692 204.898 220.038 202.968 217.982 201.533C217.003 200.881 215.809 200.627 214.646 200.823C213.465 201.108 212.407 201.764 211.631 202.693C210.075 204.697 209.269 207.176 209.351 209.705C209.337 212.276 209.679 214.837 210.368 217.315Z" fill="#263238"/>
<path id="Vector_136" d="M176.033 70.3618C175.882 72.2317 180.141 84.8534 188.885 86.4428C193.427 87.2655 196.272 75.0365 196.272 75.0365L196.857 74.0455L205.092 60.2271L191.109 43.3047L189.055 41.0048C189.055 41.0048 187.057 44.9315 184.607 49.8493L184.268 50.5598C184.115 50.8137 183.977 51.0759 183.853 51.3452C183.476 52.0744 183.1 52.8224 182.742 53.5703C182.383 54.3183 182.176 54.711 181.912 55.3093L181.083 57.1792C179.109 61.4584 177.422 65.8621 176.033 70.3618Z" fill="#F7D5CE"/>
<path id="Vector_137" d="M184.682 49.8493C184.828 54.5235 186 59.1099 188.115 63.2888C190.231 67.4676 193.239 71.1385 196.931 74.0454L205.167 60.2271L191.184 43.3047L189.129 41.0048C189.129 41.0048 187.056 44.9315 184.682 49.8493Z" fill="#263238"/>
<path id="Vector_138" d="M234.471 45.6981C227.423 72.9983 210.161 71.8763 204.319 70.3804C198.929 69.0154 180.763 63.6488 184.927 35.769C189.092 7.88916 204.112 2.50393 216.587 5.00956C229.063 7.51519 241.519 18.3979 234.471 45.6981Z" fill="#F7D5CE"/>
<path id="Vector_139" d="M185.908 34.049C192.277 36.3302 195.745 26.3077 195.745 26.3077C195.745 26.3077 203.283 28.1776 207.843 16.7526C208.433 19.5786 209.674 22.2308 211.469 24.5016C213.264 26.7724 215.564 28.6002 218.189 29.8418C220.074 30.8702 215.08 23.1102 215.08 23.1102C215.08 23.1102 220.733 33.5067 237.279 36.0498C238.448 36.2181 241.84 19.2209 231.626 9.44143C221.412 -0.33802 209.351 -0.99247 199.156 4.0001C196.612 4.37108 194.2 5.36088 192.135 6.88125C190.07 8.40161 188.416 10.4053 187.321 12.7137C183.364 20.6981 183.439 33.1702 185.908 34.049Z" fill="#263238"/>
<path id="Vector_140" d="M189.432 37.189C189.432 37.189 186.53 26.8673 181.894 27.6152C177.258 28.3632 177.522 41.9198 181.404 45.1173C181.871 45.5618 182.424 45.9078 183.029 46.1343C183.635 46.3608 184.28 46.4632 184.927 46.4353C185.573 46.4073 186.207 46.2496 186.79 45.9716C187.374 45.6937 187.894 45.3013 188.32 44.8181L189.432 37.189Z" fill="#F7D5CE"/>
<path id="Vector_141" d="M182.138 31.5051V31.6173C184.832 33.9547 185.454 37.3952 185.549 40.7797C185.479 40.4048 185.327 40.0495 185.105 39.7386C184.882 39.4278 184.594 39.169 184.26 38.9802C183.926 38.7914 183.555 38.6773 183.172 38.6457C182.789 38.6142 182.404 38.6661 182.043 38.7977C181.949 38.7977 182.043 38.9846 182.043 39.0033C182.651 39.0178 183.239 39.2202 183.726 39.5822C184.212 39.9442 184.573 40.4478 184.757 41.0228C185.07 41.9883 185.272 42.9856 185.36 43.9959C185.36 44.3325 185.963 44.3512 185.982 43.9959C187.414 39.957 186.265 33.375 182.138 31.5051Z" fill="#263238"/>
<path id="Vector_142" d="M229.703 42.3504C229.121 42.0557 228.555 41.7311 228.007 41.378C227.366 40.9854 226.8 40.761 226.461 40.0504C226.39 39.8409 226.39 39.6139 226.462 39.4045C226.533 39.1951 226.672 39.0147 226.857 38.8911C227.258 38.6978 227.704 38.6149 228.148 38.651C228.592 38.6872 229.018 38.8412 229.382 39.0968C230.184 39.4897 230.818 40.1525 231.172 40.9667C231.263 41.1681 231.289 41.3924 231.245 41.6088C231.202 41.8252 231.092 42.0229 230.931 42.1747C230.77 42.3266 230.565 42.425 230.345 42.4564C230.125 42.4879 229.9 42.4508 229.703 42.3504Z" fill="#263238"/>
<path id="Vector_143" d="M213.12 33.4878C213.742 33.6294 214.371 33.7356 215.005 33.8057C215.662 34.0398 216.382 34.0398 217.04 33.8057C217.231 33.6911 217.379 33.5174 217.46 33.3113C217.542 33.1052 217.553 32.8781 217.492 32.6651C217.302 32.2639 217.008 31.9196 216.641 31.6669C216.274 31.4141 215.846 31.2618 215.4 31.2253C214.511 31.0191 213.576 31.1526 212.781 31.5992C212.618 31.7168 212.491 31.8776 212.415 32.0633C212.34 32.2489 212.319 32.4519 212.354 32.649C212.389 32.8461 212.48 33.0293 212.616 33.1776C212.751 33.326 212.926 33.4335 213.12 33.4878Z" fill="#263238"/>
<path id="Vector_144" d="M214.835 41.6212C214.835 41.6212 214.666 41.6212 214.647 41.7334C214.157 43.6033 213.271 45.6414 211.406 45.7349V45.8471C213.478 46.1837 214.628 43.4537 214.835 41.6212Z" fill="#263238"/>
<path id="Vector_145" d="M213.741 39.2101C210.82 38.0882 208.784 43.9408 211.479 44.988C214.174 46.0351 216.172 40.145 213.741 39.2101Z" fill="#263238"/>
<path id="Vector_146" d="M212.461 39.1149C211.839 39.2645 211.123 39.6759 210.482 39.5263C209.841 39.3767 209.408 38.5539 209.144 37.806C209.144 37.806 209.144 37.806 209.031 37.806C208.749 38.308 208.672 38.8981 208.816 39.4548C208.96 40.0114 209.313 40.4921 209.804 40.7978C210.348 40.9889 210.944 40.97 211.475 40.7448C212.006 40.5197 212.432 40.1047 212.668 39.5824C212.8 39.4328 212.725 39.0588 212.461 39.1149Z" fill="#263238"/>
<path id="Vector_147" d="M219.66 52.2237C219.66 52.2237 219.132 55.0659 218.699 56.3561C218.699 56.487 218.322 56.3561 217.888 56.3561C216.71 56.1953 215.601 55.7134 214.682 54.964C213.764 54.2146 213.073 53.2272 212.687 52.1115C212.672 52.0793 212.671 52.0424 212.683 52.0091C212.695 51.9758 212.72 51.9487 212.753 51.9339C212.785 51.919 212.823 51.9175 212.856 51.9298C212.89 51.9421 212.917 51.9671 212.932 51.9993C214.21 53.6517 215.986 54.8568 218.001 55.4399C218.227 55.122 218.755 50.5408 218.962 50.5969C219.939 51.01 220.853 51.5577 221.676 52.2237C222.958 46.3149 223.278 40.2752 224.654 34.4225C224.666 34.3851 224.69 34.3525 224.722 34.3294C224.754 34.3063 224.793 34.2939 224.833 34.2939C224.872 34.2939 224.911 34.3063 224.943 34.3294C224.975 34.3525 224.999 34.3851 225.012 34.4225C224.868 40.9233 224.073 47.3938 222.637 53.7383C222.373 54.4675 220.112 52.6164 219.66 52.2237Z" fill="#263238"/>
<path id="Vector_148" d="M231.249 46.127C230.384 45.4702 229.34 45.0859 228.252 45.0237C227.679 44.9916 227.105 45.0613 226.556 45.2294C226.004 45.4415 225.504 45.7664 225.086 46.183L224.333 46.9497L225.388 47.1367C226.148 47.2701 226.892 47.4767 227.612 47.7537C228.348 48.0314 228.997 48.4956 229.496 49.1001C229.283 48.2408 228.743 47.4969 227.989 47.0245C227.248 46.529 226.415 46.1857 225.539 46.0148L225.859 46.9684C226.509 46.3716 227.349 46.0207 228.234 45.9774C229.241 45.8955 230.255 45.9458 231.249 46.127Z" fill="#263238"/>
<path id="Vector_149" d="M227.102 49.3066C226.379 48.9037 225.708 48.4138 225.105 47.8481C224.973 47.6985 224.464 47.0627 224.539 46.9318C224.735 46.573 224.976 46.24 225.256 45.9408C224.884 46.1747 224.564 46.4798 224.313 46.8383C224.3 47.0732 224.34 47.308 224.432 47.525C224.523 47.7421 224.663 47.9357 224.841 48.0912C225.472 48.6896 226.253 49.1093 227.102 49.3066Z" fill="#263238"/>
</g>
</g>
</svg>
